<?xml version="1.0" encoding="utf-8"?>
<!-- Generator: Adobe Illustrator 22.1.0, SVG Export Plug-In . SVG Version: 6.00 Build 0)  -->
<svg version="1.1" id="Layer_1" xmlns="http://www.w3.org/2000/svg" xmlns:xlink="http://www.w3.org/1999/xlink" x="0px" y="0px"
	 viewBox="0 0 1176.5 399" style="enable-background:new 0 0 1176.5 399;" xml:space="preserve">
<style type="text/css">
	.st0{fill:#2A3A4E;}
	.st1{fill:#5AAEF2;}
</style>
<g>
	<g>
		<path class="st0" d="M83.6,381.3c0,2.5-1,4.5-3,6.2c-2,1.7-4.2,2.6-6.7,2.6c-1.7,0-3.3-0.4-4.7-1.3c-1.4-0.9-2.5-2.2-3.3-4
			l-5-11.2H24.8l-5.1,11.2c-0.8,1.8-1.9,3.1-3.4,4c-1.4,0.9-3,1.3-4.7,1.3c-2.5,0-4.8-0.9-6.8-2.6c-2-1.7-3.1-3.8-3.1-6.2
			c0-1.3,0.3-2.7,1-4.1L32,316.8c1-2,2.4-3.5,4.3-4.6c1.9-1.1,4-1.6,6.3-1.6c2.2,0,4.3,0.5,6.2,1.6c1.9,1.1,3.4,2.6,4.3,4.6
			l29.4,60.4C83.3,378.5,83.6,379.9,83.6,381.3z M31.7,358.1H54l-11.1-24.8L31.7,358.1z"/>
		<path class="st0" d="M113.6,387.5c-1.9-1.8-2.8-4.2-2.8-7.3v-52.5H95.1c-3.3,0-5.7-0.7-7.3-2.1c-1.6-1.4-2.4-3.5-2.4-6.3
			c0-2.8,0.8-4.9,2.4-6.2c1.6-1.3,4-2,7.3-2h52.1c3.3,0,5.7,0.7,7.3,2c1.6,1.3,2.4,3.4,2.4,6.2c0,2.8-0.8,4.9-2.4,6.3
			c-1.6,1.4-4,2.1-7.3,2.1h-15.7v52.5c0,3-0.9,5.5-2.8,7.3c-1.9,1.8-4.4,2.7-7.5,2.7S115.5,389.4,113.6,387.5z"/>
		<path class="st0" d="M186.7,385.8c-5.9-3.3-10.5-8-13.6-14c-3.2-6.1-4.8-13.2-4.8-21.3c0-8.2,1.6-15.3,4.8-21.3
			c3.2-6,7.7-10.7,13.6-14c5.9-3.3,12.9-4.9,20.9-4.9c8,0,15,1.6,20.9,4.9c5.9,3.3,10.4,7.9,13.6,14c3.2,6.1,4.7,13.2,4.7,21.3
			c0,8.2-1.6,15.3-4.8,21.3c-3.2,6.1-7.7,10.7-13.6,14c-5.9,3.3-12.8,5-20.8,5C199.5,390.7,192.6,389.1,186.7,385.8z M221.5,368.7
			c3.3-4.2,5-10.3,5-18.3c0-8-1.7-14.1-5.1-18.3c-3.4-4.2-8-6.2-13.9-6.2c-5.9,0-10.6,2.1-13.9,6.2s-5,10.2-5,18.3
			c0,8.1,1.7,14.2,5,18.4c3.3,4.2,8,6.2,13.9,6.2C213.5,375,218.1,372.9,221.5,368.7z"/>
		<path class="st0" d="M346.6,313.4c1.8,1.9,2.7,4.3,2.7,7.2v60.6c0,2.8-0.8,5-2.4,6.7c-1.6,1.6-3.8,2.5-6.5,2.5
			c-2.6,0-4.7-0.8-6.4-2.5c-1.7-1.6-2.5-3.9-2.5-6.7v-32.7l-12.7,23.4c-1.3,2.4-2.6,4.1-4,5.1c-1.4,1-3.1,1.5-5,1.5
			c-1.9,0-3.6-0.5-5-1.5c-1.4-1-2.7-2.7-4-5.1l-12.6-22.7v32.1c0,2.7-0.8,5-2.5,6.6c-1.7,1.7-3.8,2.5-6.5,2.5
			c-2.6,0-4.7-0.8-6.4-2.5c-1.7-1.6-2.5-3.9-2.5-6.7v-60.6c0-3,0.9-5.4,2.7-7.2c1.8-1.9,4.1-2.8,7-2.8c2,0,3.8,0.6,5.5,1.7
			c1.6,1.2,3,2.8,4.1,5l20.5,38.5l20.4-38.5c2.3-4.5,5.4-6.7,9.4-6.7C342.5,310.6,344.8,311.6,346.6,313.4z"/>
		<path class="st0" d="M377.6,387.7c-1.8-1.8-2.7-4.3-2.7-7.4v-59.6c0-3,0.9-5.5,2.7-7.3c1.8-1.8,4.3-2.7,7.4-2.7
			c3.2,0,5.7,0.9,7.6,2.7c1.9,1.8,2.8,4.3,2.8,7.3v59.6c0,3.1-0.9,5.6-2.8,7.4c-1.9,1.8-4.4,2.7-7.6,2.7
			C381.9,390.4,379.5,389.5,377.6,387.7z"/>
		<path class="st0" d="M437.3,385.8c-5.9-3.3-10.5-7.9-13.7-14c-3.2-6.1-4.8-13.2-4.8-21.4c0-8.1,1.6-15.2,4.8-21.3
			c3.2-6.1,7.8-10.8,13.7-14c5.9-3.3,12.8-4.9,20.7-4.9c9.4,0,17.7,2.5,24.8,7.5c1.3,0.9,2.2,1.9,2.7,2.9c0.6,1,0.8,2.4,0.8,4
			c0,2.3-0.7,4.3-1.9,5.8c-1.3,1.6-2.9,2.4-4.7,2.4c-1.1,0-2.1-0.2-3-0.5c-0.9-0.3-1.9-0.9-3.1-1.6c-2.6-1.6-5-2.7-7.3-3.3
			c-2.3-0.7-4.7-1-7.1-1c-6.6,0-11.5,2-14.8,6c-3.2,4-4.8,10-4.8,18.1c0,8.2,1.6,14.2,4.8,18.2c3.2,4,8.1,6,14.8,6
			c2.2,0,4.4-0.4,6.5-1.1c2.1-0.7,4.8-1.8,8-3.3c1.6-0.8,2.7-1.4,3.5-1.7c0.7-0.3,1.6-0.4,2.7-0.4c1.9,0,3.4,0.8,4.7,2.4
			c1.3,1.6,1.9,3.5,1.9,5.8c0,1.6-0.3,2.9-0.8,4c-0.6,1.1-1.5,2.1-2.7,3c-7.1,5-15.4,7.5-24.8,7.5
			C450.1,390.7,443.2,389.1,437.3,385.8z"/>
		<path class="st0" d="M626.6,381.3c0,2.5-1,4.5-3,6.2c-2,1.7-4.2,2.6-6.7,2.6c-1.7,0-3.3-0.4-4.7-1.3c-1.4-0.9-2.5-2.2-3.3-4
			l-5-11.2h-36.1l-5.1,11.2c-0.8,1.8-1.9,3.1-3.4,4c-1.4,0.9-3,1.3-4.7,1.3c-2.5,0-4.8-0.9-6.8-2.6c-2-1.7-3.1-3.8-3.1-6.2
			c0-1.3,0.3-2.7,1-4.1l29.4-60.4c1-2,2.4-3.5,4.3-4.6c1.9-1.1,4-1.6,6.3-1.6c2.2,0,4.3,0.5,6.2,1.6c1.9,1.1,3.4,2.6,4.3,4.6
			l29.4,60.4C626.3,378.5,626.6,379.9,626.6,381.3z M574.7,358.1H597l-11.1-24.8L574.7,358.1z"/>
		<path class="st0" d="M713.6,313.4c1.8,1.9,2.7,4.3,2.7,7.2v59.6c0,3-0.9,5.5-2.7,7.3c-1.8,1.9-4.1,2.8-6.9,2.8
			c-3.3,0-5.9-1.1-7.6-3.3l-33.9-42.2v35.4c0,3-0.9,5.5-2.6,7.3c-1.7,1.9-4,2.8-6.9,2.8c-2.8,0-5.1-0.9-6.9-2.8
			c-1.8-1.9-2.7-4.3-2.7-7.3v-59.6c0-3,0.9-5.4,2.7-7.2c1.8-1.9,4.1-2.8,6.9-2.8c3.2,0,5.7,1.1,7.5,3.3l33.9,42.1v-35.4
			c0-3,0.9-5.5,2.6-7.3c1.7-1.8,4-2.7,6.8-2.7C709.5,310.6,711.8,311.6,713.6,313.4z"/>
		<path class="st0" d="M817.9,381.3c0,2.5-1,4.5-3,6.2c-2,1.7-4.2,2.6-6.7,2.6c-1.7,0-3.3-0.4-4.7-1.3c-1.4-0.9-2.5-2.2-3.3-4
			l-5-11.2h-36.1l-5.1,11.2c-0.8,1.8-1.9,3.1-3.4,4c-1.4,0.9-3,1.3-4.7,1.3c-2.5,0-4.8-0.9-6.8-2.6c-2-1.7-3.1-3.8-3.1-6.2
			c0-1.3,0.3-2.7,1-4.1l29.4-60.4c1-2,2.4-3.5,4.3-4.6c1.9-1.1,4-1.6,6.3-1.6c2.2,0,4.3,0.5,6.2,1.6c1.9,1.1,3.4,2.6,4.3,4.6
			l29.4,60.4C817.6,378.5,817.9,379.9,817.9,381.3z M766,358.1h22.3l-11.1-24.8L766,358.1z"/>
		<path class="st0" d="M847.9,387.5c-1.9-1.8-2.8-4.2-2.8-7.3v-52.5h-15.7c-3.3,0-5.7-0.7-7.3-2.1c-1.6-1.4-2.4-3.5-2.4-6.3
			c0-2.8,0.8-4.9,2.4-6.2c1.6-1.3,4-2,7.3-2h52.1c3.3,0,5.7,0.7,7.3,2c1.6,1.3,2.4,3.4,2.4,6.2c0,2.8-0.8,4.9-2.4,6.3
			c-1.6,1.4-4,2.1-7.3,2.1h-15.7v52.5c0,3-0.9,5.5-2.8,7.3c-1.9,1.8-4.4,2.7-7.5,2.7C852.3,390.3,849.8,389.4,847.9,387.5z"/>
		<path class="st0" d="M921,385.8c-5.9-3.3-10.5-8-13.6-14c-3.2-6.1-4.8-13.2-4.8-21.3c0-8.2,1.6-15.3,4.8-21.3
			c3.2-6,7.7-10.7,13.6-14c5.9-3.3,12.9-4.9,20.9-4.9c8,0,15,1.6,20.9,4.9c5.9,3.3,10.4,7.9,13.6,14c3.2,6.1,4.7,13.2,4.7,21.3
			c0,8.2-1.6,15.3-4.8,21.3c-3.2,6.1-7.7,10.7-13.6,14c-5.9,3.3-12.8,5-20.8,5C933.8,390.7,926.9,389.1,921,385.8z M955.8,368.7
			c3.3-4.2,5-10.3,5-18.3c0-8-1.7-14.1-5.1-18.3c-3.4-4.2-8-6.2-13.9-6.2c-5.9,0-10.6,2.1-13.9,6.2s-5,10.2-5,18.3
			c0,8.1,1.7,14.2,5,18.4c3.3,4.2,8,6.2,13.9,6.2C947.8,375,952.4,372.9,955.8,368.7z"/>
		<path class="st0" d="M1080.9,313.4c1.8,1.9,2.7,4.3,2.7,7.2v60.6c0,2.8-0.8,5-2.4,6.7c-1.6,1.6-3.8,2.5-6.5,2.5
			c-2.6,0-4.7-0.8-6.4-2.5c-1.7-1.6-2.5-3.9-2.5-6.7v-32.7l-12.7,23.4c-1.3,2.4-2.6,4.1-4,5.1c-1.4,1-3.1,1.5-5,1.5
			c-1.9,0-3.6-0.5-5-1.5c-1.4-1-2.7-2.7-4-5.1l-12.6-22.7v32.1c0,2.7-0.8,5-2.5,6.6c-1.7,1.7-3.8,2.5-6.5,2.5
			c-2.6,0-4.7-0.8-6.4-2.5c-1.7-1.6-2.5-3.9-2.5-6.7v-60.6c0-3,0.9-5.4,2.7-7.2c1.8-1.9,4.1-2.8,7-2.8c2,0,3.8,0.6,5.5,1.7
			c1.6,1.2,3,2.8,4.1,5l20.5,38.5l20.4-38.5c2.3-4.5,5.4-6.7,9.4-6.7C1076.8,310.6,1079.2,311.6,1080.9,313.4z"/>
		<path class="st0" d="M1164.8,310.5c2.4,0,4.7,0.9,6.6,2.8c2,1.9,3,4.1,3,6.5c0,2.2-0.8,4.2-2.4,6.1l-23.4,27.1v27.2
			c0,3.3-0.9,5.8-2.8,7.5c-1.9,1.7-4.3,2.6-7.3,2.6c-3,0-5.5-0.9-7.5-2.6c-1.9-1.7-2.9-4.2-2.9-7.5v-27.2l-23.2-27.1
			c-1.7-1.9-2.6-4-2.6-6.2c0-2.4,1-4.6,2.9-6.5c1.9-1.9,4.1-2.8,6.6-2.8c2.6,0,4.9,1.1,6.8,3.3l19.7,23.4l19.7-23.4
			C1159.9,311.7,1162.2,310.5,1164.8,310.5z"/>
	</g>
	<g>
		<path class="st1" d="M652.6,67.2c-2.7-8-5.9-15.4-9.6-22c-12.6-22.7-30.3-36.9-50-36.9s-37.4,14.2-50,36.9c-3.7,6.6-6.9,14-9.6,22
			c-2.4,7-4.3,14.4-5.8,22.1c-1.4,7.2-2.4,14.8-3,22.6c-0.4,4.9-0.5,9.8-0.5,14.9c0,3.3,0.1,6.5,0.2,9.7c0.2,3.2,2,6.2,4.9,7.6
			c0.1,0,0.1,0.1,0.2,0.1c6.3,3.2,13.6-1.6,13.3-8.6c-0.1-2.9-0.2-5.9-0.2-8.9c0-8.2,0.6-16.4,1.6-24.2c1-7.1,2.3-14,4.1-20.5
			c2-7.4,4.4-14.3,7.3-20.7c1.4-3.2,3-6.2,4.7-9.1c2.5-4.4,5.3-8.2,8.1-11.5c7.7-9,16.3-14,24.7-14s17,5,24.7,14
			c2.9,3.3,5.6,7.2,8.1,11.5c1.7,2.9,3.2,5.9,4.7,9.1c2.9,6.4,5.3,13.3,7.3,20.7c7.4,2,14.3,4.4,20.7,7.3
			C656.9,81.6,654.9,74.1,652.6,67.2z M656.7,109.4c-0.1,0-0.1-0.1-0.2-0.1c-6.3-3.2-13.7,1.6-13.3,8.6c0.1,2.9,0.2,5.9,0.2,8.9
			c0,8.2-0.6,16.4-1.6,24.2c-1,7.1-2.3,14-4.1,20.5c-2,7.4-4.4,14.3-7.3,20.7c-1.4,3.2-3,6.2-4.7,9.1c-2.5,4.4-5.3,8.2-8.1,11.5
			c-7.7,9-16.4,14-24.7,14s-17-5-24.7-14c-2.8-3.3-5.6-7.2-8.1-11.5c-1.7-2.9-3.2-5.9-4.7-9.1c-2.9-6.4-5.3-13.3-7.3-20.7
			c-7.4-2-14.3-4.4-20.7-7.3c1.5,7.8,3.5,15.2,5.8,22.1c2.7,8,5.9,15.3,9.6,22c12.6,22.7,30.3,36.9,50,36.9s37.4-14.2,50-36.9
			c3.7-6.6,6.9-14,9.6-22c2.4-7,4.3-14.4,5.8-22.1c1.4-7.3,2.4-14.8,3-22.6c0.4-4.9,0.5-9.8,0.5-14.9c0-3.2-0.1-6.5-0.2-9.6
			C661.5,113.9,659.6,110.9,656.7,109.4z"/>
		<path class="st1" d="M637.7,171.6c-6.5,1.8-13.4,3.1-20.5,4.1c-7.9,1.1-16,1.6-24.2,1.6s-16.4-0.6-24.2-1.6
			c-7.1-1-14-2.3-20.5-4.1c-7.4-2-14.3-4.4-20.7-7.3c-3.2-1.4-6.2-3-9.1-4.7c-4.4-2.5-8.2-5.3-11.5-8.1c-9-7.7-14-16.3-14-24.7
			c0-7.6,4.1-15.4,11.7-22.6c1.5-1.4,2.4-3.3,2.7-5.4c0-0.1,0-0.2,0-0.3c1.1-8.6-9.1-13.8-15.4-7.8c-11.1,10.5-17.5,22.8-17.5,36
			c0,19.7,14.2,37.4,36.9,50c6.6,3.7,14,6.9,22,9.6c7,2.4,14.4,4.3,22.1,5.8c7.3,1.4,14.8,2.4,22.6,3c4.9,0.4,9.8,0.5,14.9,0.5
			s10-0.2,14.9-0.5c7.8-0.6,15.4-1.6,22.6-3c7.8-1.5,15.2-3.5,22.1-5.8c2.4-7,4.3-14.4,5.8-22.1C652,167.1,645.1,169.6,637.7,171.6z
			 M674.6,76.8c-6.6-3.7-14-6.9-22-9.6c-7-2.4-14.4-4.3-22.1-5.8c-7.2-1.4-14.8-2.4-22.6-3C603,58,598,57.8,593,57.8
			s-10,0.2-14.9,0.5c-7.8,0.6-15.4,1.6-22.6,3c-7.8,1.5-15.2,3.5-22.1,5.8c-2.4,7-4.3,14.4-5.8,22.1c6.4-2.9,13.3-5.3,20.7-7.3
			c6.5-1.8,13.4-3.1,20.5-4.1c7.9-1.1,16-1.6,24.2-1.6s16.4,0.6,24.2,1.6c7.1,1,14,2.3,20.5,4.1c7.4,2,14.3,4.4,20.7,7.3
			c3.2,1.4,6.2,3,9.1,4.7c4.4,2.5,8.2,5.3,11.5,8.1c9,7.7,14,16.4,14,24.7c0,7.6-4.1,15.4-11.7,22.6c-1.5,1.4-2.5,3.3-2.7,5.4
			c0,0.1,0,0.2,0,0.3c-1.1,8.6,9.1,13.8,15.4,7.8c11.1-10.5,17.5-22.8,17.5-36C711.5,107.1,697.3,89.3,674.6,76.8z"/>
		<circle class="st1" cx="593" cy="126.8" r="26.4"/>
	</g>
</g>
</svg>
