<?xml version="1.0" encoding="utf-8"?>
<!-- Generator: Adobe Illustrator 22.1.0, SVG Export Plug-In . SVG Version: 6.00 Build 0)  -->
<svg version="1.1" id="Layer_1" xmlns="http://www.w3.org/2000/svg" xmlns:xlink="http://www.w3.org/1999/xlink" x="0px" y="0px"
	 viewBox="0 0 1485 241" style="enable-background:new 0 0 1485 241;" xml:space="preserve">
<style type="text/css">
	.st0{fill:#5AAEF2;}
	.st1{fill:#F2F2F2;}
	.st2{fill:#E6E6E6;}
	.st3{fill:#CCCCCC;}
</style>
<g>
	<path class="st0" d="M390.143,146.558c0,2.45-0.984,4.529-2.95,6.236c-1.969,1.709-4.215,2.562-6.737,2.562
		c-1.709,0-3.269-0.445-4.678-1.336c-1.411-0.892-2.524-2.228-3.341-4.009l-5.011-11.248h-36.081l-5.123,11.248
		c-0.817,1.781-1.948,3.117-3.396,4.009c-1.447,0.891-3.025,1.336-4.732,1.336c-2.524,0-4.808-0.853-6.849-2.562
		c-2.043-1.707-3.063-3.786-3.063-6.236c0-1.336,0.334-2.709,1.002-4.12l29.399-60.357c0.964-2.004,2.395-3.544,4.287-4.621
		c1.894-1.075,3.99-1.614,6.292-1.614c2.228,0,4.305,0.539,6.236,1.614c1.93,1.077,3.378,2.617,4.343,4.621l29.399,60.357
		C389.809,143.849,390.143,145.222,390.143,146.558z M338.249,123.396h22.272l-11.137-24.834L338.249,123.396z"/>
	<path class="st0" d="M420.153,152.85c-1.893-1.818-2.839-4.249-2.839-7.294v-52.45h-15.702c-3.268,0-5.698-0.686-7.294-2.061
		c-1.598-1.373-2.395-3.47-2.395-6.292c0-2.82,0.797-4.899,2.395-6.236c1.596-1.336,4.026-2.004,7.294-2.004h52.116
		c3.267,0,5.697,0.668,7.295,2.004c1.595,1.337,2.394,3.416,2.394,6.236c0,2.822-0.799,4.919-2.394,6.292
		c-1.598,1.375-4.028,2.061-7.295,2.061h-15.701v52.45c0,3.045-0.947,5.476-2.84,7.294c-1.894,1.82-4.398,2.729-7.517,2.729
		S422.047,154.67,420.153,152.85z"/>
	<path class="st0" d="M493.206,151.068c-5.902-3.303-10.45-7.979-13.642-14.031c-3.192-6.051-4.788-13.158-4.788-21.326
		c0-8.165,1.596-15.273,4.788-21.325c3.191-6.05,7.739-10.708,13.642-13.976c5.902-3.266,12.862-4.9,20.88-4.9
		c8.019,0,14.979,1.635,20.881,4.9c5.901,3.268,10.43,7.926,13.586,13.976c3.154,6.052,4.732,13.16,4.732,21.325
		c0,8.168-1.598,15.275-4.788,21.326c-3.193,6.052-7.74,10.729-13.642,14.031c-5.902,3.304-12.826,4.955-20.77,4.955
		C506.068,156.023,499.108,154.372,493.206,151.068z M528.007,134.03c3.341-4.193,5.011-10.301,5.011-18.319
		c0-8.018-1.689-14.104-5.066-18.263c-3.38-4.157-8.001-6.236-13.865-6.236c-5.94,0-10.579,2.061-13.92,6.181
		s-5.011,10.228-5.011,18.318c0,8.093,1.67,14.218,5.011,18.375c3.341,4.158,7.979,6.236,13.92,6.236
		C520.025,140.322,524.666,138.226,528.007,134.03z"/>
	<path class="st0" d="M653.175,78.739c1.781,1.857,2.672,4.271,2.672,7.239v60.579c0,2.823-0.817,5.05-2.449,6.682
		c-1.634,1.635-3.786,2.45-6.459,2.45c-2.6,0-4.733-0.815-6.403-2.45c-1.671-1.632-2.506-3.858-2.506-6.682v-32.739l-12.695,23.386
		c-1.263,2.377-2.6,4.064-4.009,5.066c-1.411,1.003-3.081,1.504-5.011,1.504c-1.932,0-3.603-0.501-5.012-1.504
		c-1.411-1.002-2.747-2.689-4.009-5.066l-12.584-22.718v32.071c0,2.748-0.835,4.956-2.506,6.626
		c-1.67,1.671-3.842,2.506-6.514,2.506c-2.6,0-4.733-0.815-6.403-2.45c-1.671-1.632-2.506-3.858-2.506-6.682V85.979
		c0-2.969,0.908-5.382,2.729-7.239c1.818-1.854,4.138-2.783,6.96-2.783c2.004,0,3.822,0.575,5.456,1.726
		c1.633,1.152,3.007,2.804,4.121,4.956l20.49,38.53l20.379-38.53c2.3-4.455,5.418-6.682,9.354-6.682
		C649.091,75.956,651.393,76.885,653.175,78.739z"/>
	<path class="st0" d="M684.188,152.961c-1.82-1.818-2.729-4.287-2.729-7.405V85.979c0-3.044,0.908-5.475,2.729-7.295
		c1.818-1.818,4.287-2.728,7.405-2.728c3.191,0,5.716,0.909,7.573,2.728c1.854,1.82,2.783,4.251,2.783,7.295v59.577
		c0,3.118-0.929,5.587-2.783,7.405c-1.857,1.82-4.382,2.729-7.573,2.729C688.475,155.689,686.006,154.781,684.188,152.961z"/>
	<path class="st0" d="M743.877,151.124c-5.902-3.267-10.468-7.943-13.697-14.031c-3.229-6.087-4.844-13.214-4.844-21.382
		c0-8.091,1.614-15.182,4.844-21.27c3.229-6.087,7.795-10.764,13.697-14.031c5.902-3.266,12.787-4.9,20.657-4.9
		c9.428,0,17.706,2.488,24.833,7.462c1.262,0.891,2.172,1.856,2.729,2.896c0.557,1.04,0.836,2.376,0.836,4.009
		c0,2.302-0.651,4.251-1.949,5.846c-1.3,1.598-2.878,2.395-4.732,2.395c-1.114,0-2.116-0.167-3.007-0.501
		c-0.892-0.334-1.932-0.872-3.118-1.614c-2.6-1.56-5.05-2.673-7.35-3.341c-2.303-0.669-4.678-1.003-7.128-1.003
		c-6.608,0-11.525,1.987-14.755,5.958c-3.229,3.973-4.844,10.005-4.844,18.096c0,8.168,1.614,14.237,4.844,18.208
		c3.229,3.973,8.146,5.958,14.755,5.958c2.228,0,4.38-0.352,6.459-1.059c2.078-0.704,4.751-1.799,8.019-3.285
		c1.559-0.815,2.709-1.373,3.452-1.67c0.741-0.296,1.632-0.445,2.673-0.445c1.854,0,3.433,0.798,4.732,2.394
		c1.298,1.598,1.949,3.547,1.949,5.847c0,1.56-0.279,2.878-0.836,3.953c-0.557,1.077-1.467,2.061-2.729,2.951
		c-7.127,4.975-15.405,7.461-24.833,7.461C756.664,156.023,749.779,154.392,743.877,151.124z"/>
	<path class="st0" d="M933.133,146.558c0,2.45-0.985,4.529-2.951,6.236c-1.968,1.709-4.215,2.562-6.737,2.562
		c-1.709,0-3.268-0.445-4.678-1.336c-1.411-0.892-2.524-2.228-3.341-4.009l-5.011-11.248h-36.081l-5.122,11.248
		c-0.818,1.781-1.949,3.117-3.396,4.009c-1.448,0.891-3.026,1.336-4.733,1.336c-2.524,0-4.808-0.853-6.849-2.562
		c-2.042-1.707-3.063-3.786-3.063-6.236c0-1.336,0.334-2.709,1.003-4.12l29.398-60.357c0.965-2.004,2.395-3.544,4.288-4.621
		c1.893-1.075,3.989-1.614,6.292-1.614c2.227,0,4.305,0.539,6.235,1.614c1.93,1.077,3.378,2.617,4.344,4.621l29.398,60.357
		C932.799,143.849,933.133,145.222,933.133,146.558z M881.238,123.396h22.272l-11.136-24.834L881.238,123.396z"/>
	<path class="st0" d="M1020.159,78.739c1.818,1.857,2.729,4.271,2.729,7.239v59.577c0,3.045-0.891,5.495-2.673,7.35
		c-1.781,1.857-4.084,2.784-6.904,2.784c-3.341,0-5.865-1.113-7.572-3.341l-33.854-42.205v35.412c0,3.045-0.854,5.495-2.562,7.35
		c-1.709,1.857-4.009,2.784-6.904,2.784c-2.822,0-5.123-0.927-6.904-2.784c-1.782-1.854-2.673-4.305-2.673-7.35V85.979
		c0-2.969,0.891-5.382,2.673-7.239c1.781-1.854,4.082-2.783,6.904-2.783c3.191,0,5.68,1.113,7.461,3.341l33.854,42.094V85.979
		c0-3.044,0.872-5.475,2.617-7.295c1.743-1.818,4.026-2.728,6.849-2.728C1016.02,75.956,1018.339,76.885,1020.159,78.739z"/>
	<path class="st0" d="M1124.447,146.558c0,2.45-0.985,4.529-2.951,6.236c-1.968,1.709-4.215,2.562-6.737,2.562
		c-1.709,0-3.268-0.445-4.678-1.336c-1.411-0.892-2.524-2.228-3.341-4.009l-5.011-11.248h-36.081l-5.122,11.248
		c-0.818,1.781-1.949,3.117-3.396,4.009c-1.448,0.891-3.026,1.336-4.733,1.336c-2.524,0-4.808-0.853-6.849-2.562
		c-2.042-1.707-3.063-3.786-3.063-6.236c0-1.336,0.334-2.709,1.003-4.12l29.398-60.357c0.965-2.004,2.395-3.544,4.288-4.621
		c1.893-1.075,3.989-1.614,6.292-1.614c2.227,0,4.305,0.539,6.235,1.614c1.93,1.077,3.378,2.617,4.344,4.621l29.398,60.357
		C1124.113,143.849,1124.447,145.222,1124.447,146.558z M1072.553,123.396h22.272l-11.136-24.834L1072.553,123.396z"/>
	<path class="st0" d="M1154.457,152.85c-1.893-1.818-2.84-4.249-2.84-7.294v-52.45h-15.701c-3.268,0-5.699-0.686-7.294-2.061
		c-1.598-1.373-2.395-3.47-2.395-6.292c0-2.82,0.797-4.899,2.395-6.236c1.595-1.336,4.026-2.004,7.294-2.004h52.116
		c3.267,0,5.697,0.668,7.294,2.004c1.596,1.337,2.395,3.416,2.395,6.236c0,2.822-0.799,4.919-2.395,6.292
		c-1.597,1.375-4.027,2.061-7.294,2.061h-15.702v52.45c0,3.045-0.946,5.476-2.839,7.294c-1.894,1.82-4.399,2.729-7.518,2.729
		C1158.856,155.578,1156.351,154.67,1154.457,152.85z"/>
	<path class="st0" d="M1227.51,151.068c-5.902-3.303-10.45-7.979-13.642-14.031c-3.193-6.051-4.788-13.158-4.788-21.326
		c0-8.165,1.595-15.273,4.788-21.325c3.191-6.05,7.739-10.708,13.642-13.976c5.902-3.266,12.862-4.9,20.88-4.9
		c8.019,0,14.979,1.635,20.88,4.9c5.902,3.268,10.43,7.926,13.586,13.976c3.155,6.052,4.733,13.16,4.733,21.325
		c0,8.168-1.598,15.275-4.789,21.326c-3.192,6.052-7.739,10.729-13.642,14.031c-5.901,3.304-12.825,4.955-20.769,4.955
		C1240.372,156.023,1233.412,154.372,1227.51,151.068z M1262.31,134.03c3.341-4.193,5.012-10.301,5.012-18.319
		c0-8.018-1.689-14.104-5.067-18.263c-3.379-4.157-8-6.236-13.864-6.236c-5.94,0-10.579,2.061-13.92,6.181
		s-5.011,10.228-5.011,18.318c0,8.093,1.67,14.218,5.011,18.375c3.341,4.158,7.979,6.236,13.92,6.236
		C1254.328,140.322,1258.969,138.226,1262.31,134.03z"/>
	<path class="st0" d="M1387.479,78.739c1.781,1.857,2.673,4.271,2.673,7.239v60.579c0,2.823-0.818,5.05-2.45,6.682
		c-1.634,1.635-3.786,2.45-6.459,2.45c-2.6,0-4.732-0.815-6.403-2.45c-1.67-1.632-2.506-3.858-2.506-6.682v-32.739l-12.694,23.386
		c-1.264,2.377-2.6,4.064-4.01,5.066c-1.411,1.003-3.081,1.504-5.011,1.504c-1.932,0-3.602-0.501-5.012-1.504
		c-1.411-1.002-2.747-2.689-4.009-5.066l-12.584-22.718v32.071c0,2.748-0.835,4.956-2.505,6.626
		c-1.671,1.671-3.842,2.506-6.515,2.506c-2.6,0-4.733-0.815-6.403-2.45c-1.671-1.632-2.506-3.858-2.506-6.682V85.979
		c0-2.969,0.908-5.382,2.729-7.239c1.818-1.854,4.138-2.783,6.96-2.783c2.005,0,3.823,0.575,5.457,1.726
		c1.632,1.152,3.007,2.804,4.12,4.956l20.49,38.53l20.379-38.53c2.3-4.455,5.418-6.682,9.354-6.682
		C1383.395,75.956,1385.696,76.885,1387.479,78.739z"/>
	<path class="st0" d="M1471.332,75.845c2.449,0,4.657,0.946,6.626,2.839c1.966,1.894,2.95,4.065,2.95,6.515
		c0,2.154-0.817,4.195-2.449,6.125l-23.386,27.061v27.172c0,3.268-0.947,5.773-2.84,7.517c-1.894,1.746-4.326,2.617-7.294,2.617
		c-3.045,0-5.531-0.871-7.461-2.617c-1.932-1.743-2.896-4.249-2.896-7.517v-27.172l-23.163-27.061
		c-1.709-1.93-2.562-4.009-2.562-6.236c0-2.449,0.964-4.602,2.896-6.459c1.93-1.854,4.12-2.783,6.57-2.783
		c2.598,0,4.861,1.113,6.793,3.341l19.711,23.385l19.711-23.385C1466.469,76.958,1468.732,75.845,1471.332,75.845z"/>
</g>
<g>
	<g>
		<path class="st0" d="M179.946,60.899c-2.702-7.972-5.934-15.353-9.603-22.001C157.779,16.171,140.026,2,120.345,2
			c-19.68,0-37.434,14.171-49.998,36.898c-3.669,6.648-6.901,14.029-9.603,22.001c-2.364,6.956-4.321,14.368-5.823,22.136
			c-1.41,7.245-2.413,14.805-2.979,22.598c-0.357,4.869-0.542,9.831-0.542,14.866c0,3.269,0.078,6.503,0.23,9.703
			c0.155,3.247,2.047,6.155,4.936,7.647c0.069,0.036,0.139,0.072,0.209,0.108c6.268,3.228,13.649-1.551,13.307-8.593
			c-0.143-2.94-0.215-5.898-0.215-8.865c0-8.218,0.554-16.356,1.625-24.248c0.954-7.085,2.321-13.974,4.081-20.524
			c1.964-7.356,4.414-14.3,7.307-20.653c1.447-3.183,3.004-6.217,4.672-9.08c2.536-4.364,5.257-8.224,8.107-11.542
			c7.719-9.012,16.35-13.986,24.685-13.986s16.965,4.974,24.685,13.986c2.85,3.318,5.571,7.178,8.107,11.542
			c1.668,2.862,3.226,5.897,4.672,9.08c2.893,6.353,5.343,13.297,7.307,20.653c7.356,1.964,14.3,4.414,20.653,7.307
			C184.268,75.267,182.31,67.855,179.946,60.899z M184.126,103.145c-0.069-0.036-0.139-0.072-0.209-0.108
			c-6.269-3.229-13.651,1.551-13.309,8.594c0.143,2.941,0.215,5.9,0.215,8.869c0,8.212-0.554,16.356-1.625,24.242
			c-0.954,7.092-2.321,13.974-4.081,20.53c-1.964,7.356-4.414,14.3-7.307,20.653c-1.447,3.183-3.004,6.217-4.672,9.08
			c-2.536,4.352-5.251,8.212-8.095,11.524c-7.726,9.024-16.356,14.005-24.697,14.005s-16.972-4.98-24.697-14.005
			c-2.844-3.312-5.559-7.172-8.095-11.524c-1.668-2.862-3.226-5.897-4.672-9.08c-2.893-6.353-5.343-13.297-7.307-20.653
			c-7.356-1.964-14.3-4.414-20.653-7.307c1.502,7.769,3.46,15.18,5.823,22.136c2.702,7.966,5.928,15.34,9.597,21.989
			C82.906,224.823,100.659,239,120.345,239s37.44-14.177,50.004-36.91c3.669-6.648,6.895-14.023,9.597-21.989
			c2.364-6.956,4.321-14.368,5.823-22.136c1.41-7.252,2.419-14.811,2.979-22.604c0.357-4.869,0.542-9.825,0.542-14.86
			c0-3.242-0.077-6.453-0.226-9.628C188.91,107.596,187.04,104.649,184.126,103.145z"/>
	</g>
	<g>
		<path class="st0" d="M165.117,165.271c-6.55,1.761-13.438,3.127-20.524,4.081c-7.892,1.071-16.03,1.625-24.248,1.625
			s-16.356-0.554-24.248-1.625c-7.085-0.954-13.974-2.321-20.524-4.081c-7.356-1.964-14.3-4.414-20.653-7.307
			c-3.183-1.447-6.217-3.004-9.08-4.672c-4.358-2.536-8.218-5.251-11.53-8.101c-9.024-7.719-13.998-16.35-13.998-24.691
			c0-7.591,4.126-15.428,11.676-22.602c1.496-1.422,2.449-3.329,2.71-5.376c0.011-0.086,0.022-0.173,0.033-0.259
			c1.109-8.596-9.135-13.765-15.427-7.805C8.232,94.946,1.845,107.291,1.845,120.5c0,19.68,14.177,37.44,36.904,50.004
			c6.648,3.669,14.023,6.895,21.995,9.597c6.956,2.364,14.368,4.321,22.136,5.823c7.252,1.41,14.811,2.419,22.604,2.979
			c4.869,0.357,9.825,0.542,14.86,0.542s9.991-0.185,14.86-0.542c7.793-0.56,15.353-1.57,22.604-2.979
			c7.769-1.502,15.18-3.46,22.136-5.823c2.364-6.956,4.321-14.368,5.823-22.136C179.417,160.858,172.473,163.308,165.117,165.271z
			 M201.941,70.496c-6.648-3.669-14.023-6.895-21.995-9.597c-6.956-2.364-14.368-4.321-22.136-5.823
			c-7.245-1.41-14.805-2.413-22.598-2.979c-4.869-0.357-9.831-0.542-14.866-0.542s-9.997,0.185-14.866,0.542
			c-7.793,0.566-15.353,1.57-22.598,2.979c-7.769,1.502-15.18,3.46-22.136,5.823c-2.364,6.956-4.321,14.368-5.823,22.136
			c6.353-2.893,13.297-5.343,20.653-7.307c6.55-1.761,13.438-3.127,20.524-4.081c7.892-1.071,16.03-1.625,24.248-1.625
			s16.356,0.554,24.248,1.625c7.085,0.954,13.974,2.321,20.524,4.081c7.356,1.964,14.3,4.414,20.653,7.307
			c3.183,1.447,6.217,3.004,9.08,4.672c4.358,2.536,8.218,5.251,11.53,8.095c9.024,7.726,13.998,16.356,13.998,24.697
			c0,7.597-4.126,15.434-11.68,22.609c-1.497,1.422-2.451,3.33-2.712,5.378c-0.011,0.086-0.022,0.173-0.033,0.259
			c-1.109,8.595,9.134,13.763,15.426,7.804c11.077-10.49,17.467-22.837,17.467-36.049C238.845,100.82,224.669,83.06,201.941,70.496z
			"/>
	</g>
	<g>
		<circle class="st0" cx="120.344" cy="120.497" r="26.398"/>
	</g>
</g>
<rect x="274" y="-195" class="st1" width="136" height="113"/>
<rect x="212" y="-195" class="st2" width="136" height="113"/>
<rect x="150" y="-195" class="st3" width="136" height="113"/>
</svg>
