<?xml version="1.0" encoding="utf-8"?>
<!-- Generator: Adobe Illustrator 22.1.0, SVG Export Plug-In . SVG Version: 6.00 Build 0)  -->
<svg version="1.1" id="Layer_1" xmlns="http://www.w3.org/2000/svg" xmlns:xlink="http://www.w3.org/1999/xlink" x="0px" y="0px"
	 viewBox="0 0 600 600" style="enable-background:new 0 0 600 600;" xml:space="preserve">
<style type="text/css">
	.st0{fill:#5AAEF2;}
	.st1{fill:none;}
</style>
<circle class="st0" cx="300" cy="300" r="70.2"/>
<g>
	<path class="st1" d="M502,299.7c0-7.4,4.9-13.7,11.6-15.7c-3.7-51.2-25.4-98.8-62.1-135.5C414.8,111.7,367.2,90,316,86.3
		C314,93,307.7,98,300.3,98c-7.4,0-13.7-4.9-15.7-11.7c-51.2,3.7-98.8,25.4-135.6,62.2c-36.8,36.8-58.5,84.5-62.2,135.7
		c6.4,2.2,11.1,8.3,11.1,15.5c0,7.2-4.6,13.3-11.1,15.5c3.6,51.3,25.4,99,62.2,135.8c36.8,36.8,84.5,58.5,135.8,62.2
		c2.2-6.4,8.3-11.1,15.5-11.1c7.2,0,13.3,4.6,15.5,11.1c51.2-3.7,98.9-25.4,135.7-62.2c36.7-36.7,58.5-84.4,62.2-135.6
		C506.9,313.3,502,307.1,502,299.7z"/>
	<path class="st0" d="M534.8,299.7c0-7.7-5.4-14.2-12.6-15.9c-3.8-53.4-26.4-103.1-64.7-141.4c-38.3-38.3-88-60.9-141.3-64.6
		c-1.7-7.2-8.2-12.5-15.9-12.5c-7.7,0-14.2,5.4-15.9,12.6c-110,7.8-198.2,95.9-206.1,205.9c-7.5,1.5-13.2,8.1-13.2,16.1
		c0,7.9,5.6,14.6,13.1,16.1c3.8,53.3,26.4,103,64.7,141.3c38.3,38.3,87.9,60.9,141.3,64.7c1.5,7.5,8.1,13.2,16.1,13.2
		c8,0,14.6-5.7,16.1-13.2c110-7.9,198-96,205.8-206C529.4,313.9,534.8,307.4,534.8,299.7z M451.5,450.9
		c-36.8,36.8-84.5,58.5-135.7,62.2c-2.2-6.4-8.3-11.1-15.5-11.1c-7.2,0-13.3,4.6-15.5,11.1c-51.3-3.6-99-25.4-135.8-62.2
		c-36.8-36.8-58.5-84.5-62.2-135.8c6.4-2.2,11.1-8.3,11.1-15.5c0-7.2-4.6-13.3-11.1-15.5c3.7-51.2,25.4-98.9,62.2-135.7
		c36.7-36.7,84.4-58.5,135.6-62.2c2,6.8,8.3,11.7,15.7,11.7c7.4,0,13.7-4.9,15.7-11.7c51.2,3.7,98.8,25.4,135.5,62.1
		c36.7,36.7,58.4,84.4,62.1,135.5c-6.7,2-11.6,8.3-11.6,15.7c0,7.4,4.9,13.7,11.6,15.7C510,366.5,488.2,414.2,451.5,450.9z"/>
</g>
<g>
	<path class="st1" d="M433.6,300c0-7.2,4.6-13.2,11-15.5c-7.8-73-69.7-130-144.7-130c-75,0-136.9,57-144.7,130
		c6.5,2.2,11.1,8.3,11.1,15.5c0,7.2-4.6,13.3-11.1,15.5c7.7,73,69.7,130,144.7,130c75,0,136.9-57.1,144.7-130.1
		C438.2,313.2,433.6,307.1,433.6,300z"/>
	<path class="st0" d="M466.4,300c0-8-5.7-14.6-13.3-16.1c-8.1-77.4-73.7-137.9-153.2-137.9c-79.5,0-145.1,60.5-153.2,138
		c-7.5,1.5-13.1,8.1-13.1,16.1c0,7.9,5.6,14.5,13.1,16.1c8,77.4,73.7,138,153.2,138c79.5,0,145.2-60.6,153.2-138
		C460.7,314.6,466.4,307.9,466.4,300z M299.9,445.5c-75,0-136.9-57-144.7-130c6.5-2.2,11.1-8.3,11.1-15.5c0-7.2-4.6-13.3-11.1-15.5
		c7.8-73,69.7-130,144.7-130c75,0,136.9,57,144.7,130c-6.4,2.2-11,8.3-11,15.5c0,7.2,4.6,13.2,11,15.5
		C436.9,388.4,375,445.5,299.9,445.5z"/>
</g>
</svg>
