<?xml version="1.0" encoding="utf-8"?>
<!-- Generator: Adobe Illustrator 22.1.0, SVG Export Plug-In . SVG Version: 6.00 Build 0)  -->
<svg version="1.1" id="Layer_1" xmlns="http://www.w3.org/2000/svg" xmlns:xlink="http://www.w3.org/1999/xlink" x="0px" y="0px"
	 viewBox="0 0 800 800" style="enable-background:new 0 0 800 800;" xml:space="preserve">
<style type="text/css">
	.st0{fill:#5AAEF2;}
</style>
<circle class="st0" cx="399.9329224" cy="400.1972351" r="70.1808624"/>
<path class="st0" d="M772.513916,400.0460205c0-7.4429321-4.9656372-13.717041-11.7617188-15.7153931
	c-1.7633667-40.6011353-10.3907471-80.4776611-25.7458496-118.741272
	c-18.1099854-45.1500244-44.5900269-85.4400024-78.710022-119.7800293
	c-32.8900146-33.0900269-71.4099731-59.210022-114.5100098-77.6400146
	c-43.0899658-18.4099731-88.5899658-28.1999512-135.2599487-29.1099854
	c-48.3900146-0.9199829-95.8100586,7.7900391-140.9400024,25.9000244
	C176.156311,100.8093262,106.0263672,169.4293213,68.1063232,258.1693115
	C50.7998657,298.6700439,41.1085815,341.041748,39.2168579,384.338623
	c-6.7803955,2.0081177-11.7307739,8.2756348-11.7307739,15.7073975c0,7.4334106,4.9525757,13.7018433,11.7352295,15.7086182
	c1.7609253,40.453125,10.3342896,80.1617432,25.5550537,118.2047119l0.1799927,0.4499512
	c18.1099854,45.1600342,44.5700073,85.4300537,78.6499634,119.7200317
	c32.8900146,33.0999756,71.4500122,59.2299805,114.5800171,77.6699829
	c43.1400146,18.4400024,88.6699829,28.2399902,135.3300171,29.1400146
	c48.3200073,0.9299927,95.7199707-7.789978,140.8599854-25.9000244
	c89.4400024-35.8499756,159.5800171-104.4699707,197.5100098-193.2099609
	c17.2893066-40.463623,26.9706421-82.7964478,28.8670044-126.0681763
	C767.5488281,413.7625122,772.513916,407.4885254,772.513916,400.0460205z M722.6863403,537.899353
	c-36.8699951,86.2799683-105.0700073,153-192.0300293,187.8599854
	c-179.5999756,72.0599976-384.3599854-15.4500122-456.4199829-195.0700073l-0.1499634-0.3800049
	C59.2819214,493.315979,50.9504395,454.772644,49.21875,415.526001c6.4237671-2.2180176,11.045166-8.3024292,11.045166-15.4799805
	c0-7.1731567-4.6159058-13.2543945-11.0335693-15.475708c1.8613892-42.0271606,11.2686768-83.1585083,28.065979-122.4710083
	c36.8699951-86.2799683,105.0599976-153,192.0100098-187.8599854c43.8900146-17.6099854,90-26.0799561,137.0300293-25.1799927
	c45.3599854,0.8800049,89.6099854,10.4000244,131.5199585,28.3099976
	c41.9000244,17.9100342,79.3699951,43.3099976,111.3500366,75.4899902
	c33.1599731,33.3699951,58.9099731,72.5499878,76.5199585,116.4500122
	c14.9060669,37.1500244,23.2954102,75.8527832,25.0288696,115.2662964
	c-6.4100342,2.2254639-11.019104,8.3026123-11.019104,15.4703979c0,7.1623535,4.6022949,13.2355347,11.0048218,15.46521
	C748.8764038,457.5114136,739.477478,498.6102905,722.6863403,537.899353z"/>
<path class="st0" d="M702.9349365,400.041626c0-7.6572876-5.2589722-14.0691528-12.3567505-15.8684082
	c-1.6613159-30.9613037-8.3376465-62.1633301-20.5088501-92.4996338
	c-12.8422852-32.0300903-30.9085083-60.9794922-53.2862549-85.9559326c3.673584-6.2775269,2.8370972-14.467041-2.5466309-19.850769
	c-5.3878174-5.3878174-13.5855713-6.2214966-19.8649292-2.538269
	c-23.3952637-20.928894-50.3138428-38.1350098-80.0521851-50.8450317
	c-31.7478638-13.5650024-64.9867554-21.2717285-98.4453735-23.1316528
	c-1.8538818-7.0178833-8.227417-12.1991577-15.8279419-12.1991577c-7.5979004,0-13.9696045,5.1776733-15.8259888,12.1918335
	c-31.3630981,1.7200928-62.5687256,8.5724487-92.5706787,20.6090088
	c-32.4509277,13.0200195-61.2717896,31.2663574-85.890625,53.3790894
	c-6.2802734-3.6878662-14.4821167-2.8555908-19.8718262,2.5341797c-5.4042358,5.4042358-6.2265015,13.635498-2.5043945,19.9222412
	c-44.0014648,49.2312012-70.206665,112.369751-73.9074097,178.394104
	c-7.078125,1.8128052-12.3179321,8.2150879-12.3179321,15.8583984c0,7.623291,5.2125244,14.012085,12.2624512,15.8442383
	c1.6647949,30.9534912,8.3418579,62.1477661,20.5097046,92.4777222
	c12.8557129,32.0703735,30.9586792,61.0527344,53.3822632,86.0506592c-3.640686,6.2711792-2.7944946,14.432373,2.5753174,19.8021851
	c5.3777466,5.3778076,13.5551758,6.2183838,19.8300171,2.5588379
	c23.3761597,20.8917236,50.2632446,38.0682373,79.9523926,50.7583618
	c31.7805786,13.5796509,65.0524902,21.2897949,98.5354004,23.1453857
	c1.8358765,7.0443726,8.2219849,12.2515259,15.8413086,12.2515259c7.6188354,0,14.0045166-5.2063599,15.8410034-12.25
	c31.3204346-1.7263794,62.4736938-8.5724487,92.4122925-20.5869141l0.0499878-0.0100098
	c32.4558105-13.0237427,61.2815552-31.2769775,85.9038696-53.3988647c6.2942505,3.763855,14.5615845,2.9533691,19.9832764-2.4683228
	c5.4382324-5.4382324,6.2376099-13.7397461,2.4341431-20.0410767
	c43.9454956-49.2033081,70.1276245-112.2849121,73.8453979-178.2492676
	C697.6453857,414.1487427,702.9349365,407.7212524,702.9349365,400.041626z M505.1593018,662.133606l-0.039978,0.0200195
	c-28.9396973,11.6106567-59.0423584,18.2491455-89.3068237,19.9592896
	c-1.9341431-6.8966675-8.2520752-11.960144-15.7664795-11.960144c-7.5137939,0-13.8313599,5.0627441-15.7659912,11.9584351
	c-32.3631592-1.8403931-64.5150757-9.3204346-95.2307129-22.4476318
	c-28.6956787-12.2650757-54.6916504-28.8391113-77.3101196-48.9909058c3.52771-6.248291,2.6466064-14.3120728-2.6749268-19.633606
	c-5.329895-5.329895-13.4106445-6.204834-19.6629028-2.6576538c-21.6340942-24.18927-39.104187-52.2113037-51.5320435-83.2078247
	c-11.7601318-29.3101807-18.2374878-59.4522705-19.8883667-89.3670654
	c6.8934937-1.9361572,11.9539795-8.2526855,11.9539795-15.7648926c0-7.4927979-5.0339355-13.7972412-11.9002075-15.7509766
	c3.659668-63.8341064,28.9941406-124.8676758,71.4807129-172.5213623c6.236145,3.4713135,14.2515869,2.5722046,19.5488281-2.7250366
	c5.3097534-5.3097534,6.1995239-13.3501587,2.6991577-19.5925903
	c23.8325806-21.3449707,51.7055054-38.9642944,83.0759277-51.5480347
	c28.9778442-11.62677,59.1228027-18.2723389,89.4283447-19.9794922c1.9188843,6.920105,8.2472534,12.0064087,15.7783203,12.0064087
	c7.5288086,0,13.855835-5.083313,15.7767944-12.0002441c32.336853,1.84552,64.460144,9.3204956,95.1464844,22.4332886
	c28.7336426,12.2789307,54.7590332,28.8835449,77.3973389,49.0767212
	c-3.5079956,6.2440186-2.6206055,14.2908936,2.6924438,19.6039429c5.3173218,5.3173218,13.3729858,6.2015381,19.6190796,2.6835327
	c21.5963135,24.1728516,39.0377197,52.1707764,51.4511719,83.1358032
	c11.7693481,29.3330078,18.2484131,59.4988403,19.8930664,89.4360352
	c-6.8485107,1.9650879-11.8652344,8.2617798-11.8652344,15.7420044c0,7.4587402,4.9871826,13.7423706,11.805481,15.7266846
	c-3.6641235,63.8173828-28.9926147,124.8340454-71.4658813,172.4800415
	c-6.2197876-3.3980713-14.1723022-2.4746704-19.4376831,2.7907104c-5.2796631,5.2796631-6.1920776,13.2602539-2.7612915,19.4874878
	C564.4515381,631.8970947,536.5569458,649.5367432,505.1593018,662.133606z"/>
<path class="st0" d="M634.5281372,399.9970093c0-7.7345581-5.364624-14.2009888-12.5714111-15.923584
	c-3.3850098-48.1152344-22.1068726-93.2490845-53.8016357-129.7151489
	c3.8896484-6.315979,3.1135864-14.6918945-2.3604126-20.1658936c-5.4747314-5.4747314-13.8521729-6.2502441-20.168457-2.3588867
	c-36.4553833-31.6721191-81.5691528-50.3817749-129.6622314-53.769165
	c-1.7305908-7.1955566-8.1913452-12.5494385-15.9179688-12.5494385c-7.7293091,0-14.1919556,5.3574829-15.9198608,12.5568237
	c-49.4075928,3.5002441-94.4122925,23.1887817-129.7149048,53.7947998
	c-6.3225098-3.9302979-14.7335815-3.164917-20.2243652,2.3258667c-5.4904785,5.4904785-6.2560425,13.9007568-2.3265381,20.2232666
	c-30.5693359,35.253418-50.2523804,80.1837769-53.7954102,129.513855
	c-7.5053711,1.4992676-13.1619263,8.1212158-13.1619263,16.0675049c0,7.9406738,5.6483765,14.5596313,13.145752,16.0650635
	c3.3999634,48.0115356,22.0784302,93.0442505,53.6742554,129.4581299
	c-4.3070068,6.3743896-3.6461792,15.1046143,1.996521,20.7473145c5.6420288,5.6420288,14.3707886,6.3034058,20.7449951,1.99823
	c36.4251099,31.6188354,81.4786987,50.3094482,129.5131226,53.7067261
	c1.4971313,7.5081177,8.1200562,13.1675415,16.0683594,13.1675415c7.9549561,0,14.581604-5.6691284,16.0713501-13.1866455
	c49.2699585-3.5446777,94.1498413-23.1901855,129.3808594-53.701416c6.3759155,4.319519,15.1160889,3.663269,20.7637939-1.984436
	c5.6480713-5.6481323,6.3039551-14.3892822,1.9833374-20.7652588
	c30.5473022-35.2796021,50.1986084-80.2324829,53.7010498-129.5789185
	C629.1584473,414.2045288,634.5281372,407.7352905,634.5281372,399.9970093z M613.397522,415.6829834
	c-3.3233032,46.0645142-21.2828979,89.277832-51.6281128,124.2381592
	c-6.0982666-2.9315186-13.6290894-1.8867188-18.6848145,3.1689453c-5.0558472,5.0558472-6.1005859,12.5869751-3.1687622,18.6853027
	c-35.0023804,30.3850708-78.2672119,48.3512573-124.3829956,51.6506958
	c-2.2125244-6.4335938-8.3022461-11.0638428-15.4868164-11.0638428c-7.1876831,0-13.2797241,4.6342163-15.4898071,11.0721436
	c-46.1765747-3.2750244-89.4789429-21.2451782-124.4967041-51.6456299
	c2.9397583-6.100647,1.8969727-13.6391602-3.1625366-18.6986694c-5.0587158-5.0586548-12.5956421-6.1018677-18.6958008-3.1638794
	c-30.3674927-34.9969482-48.3322754-78.28125-51.6134644-124.4316406
	c6.4489136-2.2039185,11.0930786-8.302002,11.0930786-15.4975586c0-7.1935425-4.6415405-13.2900391-11.0877075-15.4955444
	c3.291626-46.0502319,21.2061768-89.2593994,51.5095215-124.2369385c6.1928101,3.2833252,14.0467529,2.3201904,19.2616577-2.8947144
	c5.2148438-5.2148438,6.1781006-13.0684814,2.8950195-19.2612305
	c34.9361572-30.2640381,78.0946045-48.1719971,124.0946045-51.4871216
	c2.0268555,6.7502441,8.2817993,11.6712036,15.6921387,11.6712036c7.4084473,0,13.6623535-4.918335,15.6908569-11.6659546
	c45.9871216,3.3294678,89.1113281,21.2161865,124.0130615,51.4349976
	c-3.3134155,6.2000732-2.3609009,14.079834,2.8673096,19.3081055c5.2290039,5.2289429,13.1102905,6.1808472,19.310791,2.8657227
	c30.2511597,34.921936,48.1434937,78.0635376,51.4672852,124.0761108
	c-6.7370605,2.0350342-11.6449585,8.2844849-11.6449585,15.6853638
	C601.7503662,407.3986816,606.6594238,413.6486206,613.397522,415.6829834z"/>
<path class="st0" d="M553.9295654,400.2561646c0-79.5343628-60.5692139-145.171936-138.0076294-153.22229
	c-1.4677734-7.5455322-8.1052246-13.2437134-16.0800171-13.2437134c-7.977356,0-14.616272,5.7020264-16.0811768,13.2512207
	c-77.4070435,8.0805054-137.9423218,73.7028809-137.9423218,153.2147827
	c0,79.5181274,60.5447998,145.1448364,137.9606323,153.2168579c1.5110474,7.4904175,8.1271973,13.1312866,16.0628662,13.1312866
	c7.9330444,0,14.5478516-5.637085,16.0617065-13.1237793C493.350769,545.4387207,553.9295654,479.7967529,553.9295654,400.2561646z
	 M415.3432617,544.9301147c-2.2009277-6.4544678-8.3018799-11.1035767-15.5013428-11.1035767
	c-7.1968384,0-13.2958374,4.6456909-15.4987793,11.0964966c-72.9526978-7.7767334-129.9660645-69.6844482-129.9660645-144.6668701
	c0-74.996582,57.0348511-136.9139404,130.0074463-144.6716919c2.2357788,6.3912964,8.3030396,10.9834595,15.4573975,10.9834595
	c7.1569824,0,13.2262573-4.59552,15.4599609-10.9905396c73.0020752,7.7293091,130.0690308,69.6610107,130.0690308,144.678772
	C545.3709106,475.2597656,488.3256226,537.1817627,415.3432617,544.9301147z"/>
</svg>
