<?xml version="1.0" encoding="utf-8"?>
<!-- Generator: Adobe Illustrator 22.1.0, SVG Export Plug-In . SVG Version: 6.00 Build 0)  -->
<svg version="1.1" id="Layer_1" xmlns="http://www.w3.org/2000/svg" xmlns:xlink="http://www.w3.org/1999/xlink" x="0px" y="0px"
	 viewBox="0 0 500 500" style="enable-background:new 0 0 500 500;" xml:space="preserve">
<style type="text/css">
	.st0{fill:#F4A721;}
	.st1{fill:#FFFFFF;}
</style>
<circle class="st0" cx="250" cy="250" r="245"/>
<g>
	<g>
		<path class="st1" d="M329.8359375,298.4003906c3.796875,3.2919922,5.6943359,7.9716797,5.6943359,14.0449219
			c0,12.6582031-7.5917969,18.9804688-22.7763672,18.9804688h-19.359375v29.9892578
			c0,7.8466797-2.21875,13.9208984-6.6435547,18.2207031c-4.4306641,4.3007813-10.1904297,6.453125-17.2724609,6.453125
			c-7.0878906,0-12.8466797-2.1523438-17.2714844-6.453125c-4.4306641-4.2998047-6.6435547-10.3740234-6.6435547-18.2207031
			v-29.9892578h-99.4560547c-6.8339844,0-12.1484375-1.9570313-15.9433594-5.8837891
			c-3.796875-3.9208984-5.6943359-8.7900391-5.6943359-14.6152344c0-6.0732422,2.0224609-11.8916016,6.0732422-17.4619141
			l117.2988281-168.5439453c2.5263672-3.5410156,5.6933594-6.2636719,9.4902344-8.1621094
			c3.7958984-1.8984375,7.7158203-2.8476563,11.7675781-2.8476563c6.5771484,0,12.2714844,2.1542969,17.0820313,6.4541016
			c4.8046875,4.3056641,7.2128906,10.3798828,7.2128906,18.2207031v154.8789063h19.359375
			C320.3457031,293.4648438,326.0400391,295.1142578,329.8359375,298.4003906z M174.9570313,293.4648438h70.6064453V191.3505859
			L174.9570313,293.4648438z"/>
	</g>
</g>
</svg>
