<?xml version="1.0" encoding="utf-8"?>
<!-- Generator: Adobe Illustrator 22.1.0, SVG Export Plug-In . SVG Version: 6.00 Build 0)  -->
<svg version="1.1" id="Layer_1" xmlns="http://www.w3.org/2000/svg" xmlns:xlink="http://www.w3.org/1999/xlink" x="0px" y="0px"
	 viewBox="0 0 1000 1000" style="enable-background:new 0 0 1000 1000;" xml:space="preserve">
<style type="text/css">
	.st0{fill:#E0417A;}
	.st1{fill:#854EA5;}
	.st2{fill:#FFB743;}
	.st3{fill:#FFFFFF;}
</style>
<path class="st2" d="M980,500c0,265.1-214.9,480-480,480S20,765.1,20,500c0-16.88,0.87-33.56,2.58-50C47.58,208.4,251.78,20,500,20
	s452.42,188.4,477.42,430C979.13,466.44,980,483.12,980,500z"/>
<path class="st3" d="M712.528,551.472H287.472C259.162,551.472,236,528.309,236,500v0c0-28.309,23.162-51.472,51.472-51.472h425.057
	C740.838,448.528,764,471.691,764,500v0C764,528.309,740.838,551.472,712.528,551.472z"/>
</svg>
