<?xml version="1.0" encoding="utf-8"?>
<!-- Generator: Adobe Illustrator 22.1.0, SVG Export Plug-In . SVG Version: 6.00 Build 0)  -->
<svg version="1.1" id="Layer_1" xmlns="http://www.w3.org/2000/svg" xmlns:xlink="http://www.w3.org/1999/xlink" x="0px" y="0px"
	 viewBox="0 0 1000 1081" style="enable-background:new 0 0 1000 1081;" xml:space="preserve">
<style type="text/css">
	.st0{fill:#F2F2F2;}
	.st1{fill:#DBDBDB;}
</style>
<path class="st0" d="M295.8,1077.9c-91.9,0-166.8,0-199.8,0c-16.1,0-31.6-6.9-42.3-18.9c-10.8-12-16-28.1-14.3-44.1
	c2.2-20.8,7.6-53.3,20.4-90c14.7-42.1,35.7-79.9,62.6-112.3c45-54.3,105-92.3,178.6-113c8.7-2.4,17.6-4.7,26.6-6.6
	c2.3-0.5,3.2-3.1,3.5-4.2c0.4-1.5,0.6-3.6-0.8-4.9c-6.6-6-12.9-12.3-18.8-18.8c-22-24.1-38.2-50-48-76.9c-3.4-9.4-6.1-18.9-7.9-28.3
	c-0.1-0.6-0.2-1.3-0.4-1.9c-11.5-6.4-21.9-15.8-30.7-28c-15-20.8-22.1-44.9-25.5-61.4c-1.9-9.5-3.1-19-3.5-28.3c0-0.3,0-0.6,0-0.9
	c-0.9-24.4,3.5-43.8,13.2-58c-7.6-38.4-20.4-110.7,0.4-183.9c0,0,0.1-0.3,0.1-0.4c12.8-44.7,36.3-82.9,69.9-113.4
	c7.1-6.5,14.8-12.7,22.9-18.5c0,0,0.1-0.1,0.1-0.1c2-1.4,4-2.8,6-4.2c6.2-4.2,12.9-8.3,19.8-12.3c0,0,0.2-0.1,0.3-0.2
	c2.7-1.5,5.5-3,8.3-4.5c8.4-4.4,17.4-8.6,26.7-12.5c0.1,0,0.2-0.1,0.3-0.1c11.9-4.9,24.5-9.4,37.6-13.3c3.8-1.1,7.8-2.3,11.9-3.3
	c13-3.5,26.9-6.6,41.2-9.1c14.4-2.6,29-3.9,43.3-3.9c12.5,0,24.9,1,37.1,2.9c16.1,2.5,30,6.5,42.6,12.2c2.6,1.2,5.3,2.5,7.9,3.8
	c8.4,4.2,16.7,9.2,24.6,14.6c0.1,0.1,0.2,0.1,0.3,0.2v0c6.6,4.6,12.9,9.5,18.9,14.8c1.3,1.1,2.5,2.2,3.8,3.4
	c0.1,0.1,0.3,0.2,0.4,0.3c5.4,5,10.5,10.3,15,15.5c1.7,2,3.5,4.1,5.2,6.4c0.1,0.2,0.3,0.4,0.4,0.5c0.9,1.2,1.8,2.3,2.6,3.5
	c0.9,1.3,1.8,2.6,2.6,3.8C678.4,87,698.3,94,715.7,104c35,19.9,61,51.2,75.3,90.5c0,0.1,0.1,0.3,0.1,0.4
	c18.4,50.9,17.6,115.2-2.4,191.2c7.7,11.8,15,29.3,14.4,52.6c0,0.2,0,0.7,0,0.9c-0.1,3.3-0.4,6.8-0.9,10.3
	c-4.1,31-22,63.8-53.1,97.6c-0.4,3.7-1,7.5-1.8,11.2c-0.1,0.8-0.3,1.5-0.5,2.3c0,0-0.1,0.7-0.2,0.8c-1.9,9-4.8,18.2-8.4,27.4
	c-9.5,24.1-25,49.1-46,74.6c-5.3,6.4-11.3,13.2-17.6,20c-1.7,1.8-1.1,4.5-0.8,5.6c0.5,1.5,1.4,3.4,3.4,3.8c8.4,1.9,17,4.2,25.4,6.6
	c71.2,20.8,131.9,57.3,175.6,105.4c31.1,34.2,54.7,76.2,68.3,121.5c8.6,28.5,13.6,59.4,15.1,91.7c0.7,15.4-5,30.7-15.7,41.9
	c-10.7,11.2-25.7,17.6-41.2,17.6C828.2,1077.9,514,1077.9,295.8,1077.9z"/>
<path class="st1" d="M904.9,1037.9c-108.9,0-697.5,0.1-808.9,0c-10.1,0-17.9-8.7-16.8-18.7c2-18.6,6.8-47.9,18.3-81
	c11.1-31.9,28.5-67.2,55.6-100c34.6-41.8,85-79.3,158.6-100c7.8-2.2,15.9-4.2,24.2-6c35-7.6,47.7-53.7,21.2-77.8
	c-4.8-4.3-10.3-9.8-16.2-16.2c-14.4-15.8-30.5-37.6-40-63.7c-2.6-7.1-4.7-14.4-6.2-22.1c-0.9-4.6-1.5-9.3-1.9-14.1
	c-0.3-3.4-0.4-6.9-0.4-10.4v0c-29,0-47.5-34-54.3-67.2c-1.6-7.6-2.5-15.3-2.8-22.4v0c0,0,0-0.1,0-0.1c-0.9-22.5,4.5-40.3,16.7-40.3
	c0-1.9-0.5-5.1-1.3-9.3l0-0.1c-5.4-28.6-24.5-105.3-3.3-179.9c0-0.1,0-0.1,0-0.2c9.6-33.6,27.4-66.8,58.4-95
	c6-5.4,12.4-10.6,19.4-15.7c1.7-1.2,3.5-2.5,5.3-3.7c5.4-3.7,11.1-7.2,17.1-10.6c0,0,0.1,0,0.1-0.1c2.4-1.3,4.8-2.6,7.2-3.9
	c7.4-3.9,15.2-7.5,23.5-11c0,0,0,0,0,0c0,0,0,0,0,0c10.5-4.4,21.8-8.4,33.8-12c3.5-1.1,7.1-2.1,10.8-3c11.9-3.2,24.5-6,37.9-8.4
	c22.2-3.9,44.9-4.4,67.1-0.8c11.6,1.8,22.3,4.6,32.4,9.2c2.2,1,4.3,2,6.4,3c7.2,3.6,13.9,7.7,20.1,12c0,0,0,0,0,0s0,0,0,0
	c5.6,3.9,10.7,7.9,15.3,12c1.1,1,2.2,1.9,3.2,2.9c0,0,0.1,0.1,0.1,0.1c4.5,4.1,8.4,8.2,11.8,12.2c1.4,1.6,2.7,3.3,3.9,4.8
	c0,0,0,0,0,0c0.7,1,1.4,1.9,2.1,2.8c0.9,1.2,1.7,2.4,2.4,3.5c0.2,0.3,0.4,0.6,0.6,0.9c0.3,0.5,0.6,1,0.9,1.5
	c0.3,0.5,0.5,0.9,0.8,1.3c0.3,0.4,0.5,0.9,0.7,1.3c0.3,0.5,0.5,1,0.8,1.5c1.6,3.3,2.4,6,2.4,8.1c33.9,0,96.3,17.7,121.5,86.9
	c0,0.1,0,0.1,0.1,0.2c14.6,40.3,16.7,98-6.8,179.9c0,0,0,0.1,0,0.1c0,0,0,0,0,0c-0.8,2.6-1.6,5.3-2.4,8c0.1,0,0.1,0.1,0.2,0.1
	c2.1,1.4,4.5,3.5,6.9,6.2c0.5,0.5,1,1.1,1.4,1.7c5.8,7.3,10.9,18.4,10.4,33.6c0,0,0,0.1,0,0.1v0c-0.1,2.1-0.3,4.2-0.5,6.4
	c-2.9,21.4-16.6,49.8-52.4,85.7v0c0,2.6-0.1,5.2-0.3,7.9c-0.3,4.1-0.9,8.4-1.8,12.8c-0.1,0.7-0.3,1.5-0.5,2.3
	c-1.5,6.7-3.6,13.8-6.5,21.2c-7.4,18.8-19.9,40-39.6,63.7c-4.9,5.9-10.3,12-16.1,18.3c-23.3,25-10.6,68,22.9,75.7
	c7,1.6,14.7,3.6,23.1,6c59.2,17.3,115.5,48,157.3,93.9c27.6,30.4,47.8,66.8,59.6,106.1c7.3,24.5,12.1,51.7,13.5,82.1
	C922.3,1029.8,914.5,1037.9,904.9,1037.9z"/>
</svg>
