<?xml version="1.0" encoding="utf-8"?>
<!-- Generator: Adobe Illustrator 22.1.0, SVG Export Plug-In . SVG Version: 6.00 Build 0)  -->
<svg version="1.1" id="Layer_1" xmlns="http://www.w3.org/2000/svg" xmlns:xlink="http://www.w3.org/1999/xlink" x="0px" y="0px"
	 viewBox="0 0 500 500" style="enable-background:new 0 0 500 500;" xml:space="preserve">
<style type="text/css">
	.st0{fill:#5AAEF2;}
	.st1{fill:#FFFFFF;}
</style>
<circle class="st0" cx="250" cy="250" r="245"/>
<g>
	<path class="st1" d="M338.2583008,364.6408691c0,13.4169922-7.5917969,20.1191406-22.7763672,20.1191406H187.175293
		c-15.4394531,0-23.15625-6.7021484-23.15625-20.1191406c0-12.90625,7.7167969-19.3603516,23.15625-19.3603516h39.4790039
		V172.1809082l-36.4423828,22.3964844c-3.546875,2.0283203-6.7084961,3.0371094-9.4902344,3.0371094
		c-5.3144531,0-9.8105469-2.277832-13.4760742-6.8330078c-3.6713867-4.5551758-5.5039063-9.6147461-5.5039063-15.1845703
		c0-7.3369141,3.2856445-13.0307617,9.8696289-17.0820313l58.8388672-36.4423828
		c7.5922852-4.5551758,14.8041992-6.8325195,21.637207-6.8325195c7.0820313,0,12.7763672,2.152832,17.0830078,6.453125
		c4.2998047,4.3061523,6.453125,10.2495117,6.453125,17.8413086v205.7460938h39.8583984
		C330.6665039,345.2805176,338.2583008,351.7346191,338.2583008,364.6408691z"/>
</g>
</svg>
