<?xml version="1.0" encoding="utf-8"?>
<!-- Generator: Adobe Illustrator 22.1.0, SVG Export Plug-In . SVG Version: 6.00 Build 0)  -->
<svg version="1.1" id="Layer_1" xmlns="http://www.w3.org/2000/svg" xmlns:xlink="http://www.w3.org/1999/xlink" x="0px" y="0px"
	 viewBox="0 0 500 500" style="enable-background:new 0 0 500 500;" xml:space="preserve">
<style type="text/css">
	.st0{fill:#5AAEF2;}
	.st1{fill:none;}
</style>
<circle class="st0" cx="250" cy="250" r="70.2"/>
<g>
	<path class="st1" d="M383.6,250c0-7.2,4.6-13.2,11-15.5c-7.8-73-69.7-130-144.7-130c-75,0-136.9,57-144.7,130
		c6.5,2.2,11.1,8.3,11.1,15.5c0,7.2-4.6,13.3-11.1,15.5c7.7,73,69.7,130,144.7,130c75,0,136.9-57.1,144.7-130.1
		C388.2,263.2,383.6,257.1,383.6,250z"/>
	<path class="st0" d="M416.4,250c0-8-5.7-14.6-13.3-16.1c-8.1-77.4-73.7-137.9-153.2-137.9c-79.5,0-145.1,60.5-153.2,138
		c-7.5,1.5-13.1,8.1-13.1,16.1c0,7.9,5.6,14.5,13.1,16.1c8,77.4,73.7,138,153.2,138c79.5,0,145.2-60.6,153.2-138
		C410.7,264.6,416.4,257.9,416.4,250z M249.9,395.5c-75,0-136.9-57-144.7-130c6.5-2.2,11.1-8.3,11.1-15.5c0-7.2-4.6-13.3-11.1-15.5
		c7.8-73,69.7-130,144.7-130c75,0,136.9,57,144.7,130c-6.4,2.2-11,8.3-11,15.5c0,7.2,4.6,13.2,11,15.5
		C386.9,338.4,325,395.5,249.9,395.5z"/>
</g>
</svg>
