<?xml version="1.0" encoding="utf-8"?>
<!-- Generator: Adobe Illustrator 22.1.0, SVG Export Plug-In . SVG Version: 6.00 Build 0)  -->
<svg version="1.1" id="Layer_1" xmlns="http://www.w3.org/2000/svg" xmlns:xlink="http://www.w3.org/1999/xlink" x="0px" y="0px"
	 viewBox="0 0 500 500" style="enable-background:new 0 0 500 500;" xml:space="preserve">
<style type="text/css">
	.st0{fill:#DD4343;}
	.st1{fill:#FFFFFF;}
</style>
<circle class="st0" cx="250" cy="250" r="245"/>
<g>
	<g>
		<path class="st1" d="M331.8049316,269.5498047c8.4765625,11.2636719,12.7167969,25.2441406,12.7167969,41.9462891
			c0,23.03125-8.4814453,41.3769531-25.4335938,55.0429688c-16.9570313,13.6660156-39.8583984,20.4990234-68.7080078,20.4990234
			c-16.4541016,0-32.2666016-2.5332031-47.4511719-7.5927734c-15.184082-5.0585938-28.0908203-12.1474609-38.7197266-21.2578125
			c-5.8242188-5.0595703-8.730957-11.0087891-8.730957-17.8408203c0-5.5644531,1.578125-10.3085938,4.7451172-14.2353516
			c3.1616211-3.9208984,6.8920898-5.8837891,11.1987305-5.8837891c2.5263672,0,4.8041992,0.4443359,6.8325195,1.328125
			c2.0229492,0.8896484,4.8046875,2.3427734,8.3515625,4.3652344c10.6289063,7.0878906,20.7475586,12.5273438,30.3686523,16.3232422
			c9.6142578,3.7958984,20.1191406,5.6943359,31.5068359,5.6943359c16.703125,0,29.0996094-3.3515625,37.2011719-10.0595703
			c8.0966797-6.7021484,12.1474609-16.8925781,12.1474609-30.5585938c0-13.4101563-4.2402344-23.3457031-12.7167969-29.7988281
			c-8.4814453-6.453125-21.578125-9.6796875-39.2890625-9.6796875h-21.6376953
			c-5.8242188,0-10.3144531-1.9580078-13.4755859-5.8837891c-3.1674805-3.9208984-4.7451172-8.4111328-4.7451172-13.4765625
			c0-5.3144531,1.5776367-9.8691406,4.7451172-13.6660156c3.1611328-3.7958984,7.6513672-5.6933594,13.4755859-5.6933594h15.1845703
			c34.6689453,0,52.0058594-13.03125,52.0058594-39.0996094c0-12.1474609-3.6708984-21.5078125-11.0087891-28.0908203
			c-7.3427734-6.578125-17.4619141-9.8701172-30.3681641-9.8701172c-18.4755859,0-38.2158203,7.34375-59.2182617,22.0175781
			c-3.5473633,2.0283203-6.3291016,3.4814453-8.3515625,4.3652344c-2.0283203,0.8896484-4.3061523,1.328125-6.8330078,1.328125
			c-4.3061523,0-8.0366211-1.9570313-11.1982422-5.8828125c-3.1674805-3.921875-4.7451172-8.6660156-4.7451172-14.2363281
			c0-3.7949219,0.6938477-7.0214844,2.0878906-9.6796875c1.3876953-2.65625,3.6064453-5.3730469,6.6430664-8.1611328
			c10.6289063-8.8554688,23.3457031-15.8779297,38.1503906-21.0683594
			c14.8046875-5.1845703,29.9238281-7.7822266,45.3632813-7.7822266c26.3173828,0,47.2607422,6.453125,62.8242188,19.3603516
			c15.5644531,12.9072266,23.3457031,30.1191406,23.3457031,51.6259766
			c-0.2548828,14.6806641-4.1162109,27.5214844-11.578125,38.5302734
			c-7.4667969,11.0087891-17.90625,19.0458984-31.3173828,24.1044922
			C311.1164551,250.6347656,323.3234863,258.2919922,331.8049316,269.5498047z"/>
	</g>
</g>
</svg>
