<?xml version="1.0" encoding="utf-8"?>
<!-- Generator: Adobe Illustrator 22.1.0, SVG Export Plug-In . SVG Version: 6.00 Build 0)  -->
<svg version="1.1" id="Layer_1" xmlns="http://www.w3.org/2000/svg" xmlns:xlink="http://www.w3.org/1999/xlink" x="0px" y="0px"
	 viewBox="0 0 1000 1000" style="enable-background:new 0 0 1000 1000;" xml:space="preserve">
<style type="text/css">
	.st0{fill:#CEDAF3;}
	.st1{fill:#FFFFFF;}
	.st2{fill:#002337;}
	.st3{fill:#DD4343;}
	.st4{fill:#65C74C;}
	.st5{fill:#5AAEF2;}
	.st6{fill:#1E2B3A;}
	.st7{fill:#FFB743;}
	.st8{fill:#E0417A;}
	.st9{fill:#854EA5;}
	.st10{fill:#182230;}
	.st11{fill:#577C9B;}
	.st12{fill:#8BA1BC;}
	.st13{fill:#15212D;}
	.st14{fill:#D6E1F2;}
</style>
<g>
	<circle class="st0" cx="500" cy="500" r="480.944"/>
	<path class="st1" d="M500.005,911.243c-2.44,0-4.879-0.035-7.284-0.105C269.315,907.27,88.778,724.328,88.778,500.016
		c0-224.347,180.537-407.29,403.943-411.158c2.405-0.07,4.845-0.105,7.284-0.105c22.759,0,45.065,1.847,66.813,5.472
		c195.106,31.96,344.415,201.762,344.415,405.79c0,203.993-149.309,373.796-344.415,405.755
		C545.07,909.396,522.764,911.243,500.005,911.243z"/>
	
		<rect x="338.594" y="397.971" transform="matrix(-0.7071 0.7071 -0.7071 -0.7071 999.5771 656.277)" class="st2" width="50.551" height="274.374"/>
	
		<rect x="617.677" y="397.971" transform="matrix(0.7071 0.7071 -0.7071 0.7071 566.7302 -297.8924)" class="st2" width="50.551" height="274.374"/>
	<circle class="st5" cx="504.233" cy="677.698" r="87.323"/>
	<circle class="st5" cx="729.606" cy="424.811" r="87.323"/>
	<circle class="st5" cx="278.564" cy="424.811" r="87.323"/>
</g>
</svg>
