<?xml version="1.0" encoding="utf-8"?>
<!-- Generator: Adobe Illustrator 22.1.0, SVG Export Plug-In . SVG Version: 6.00 Build 0)  -->
<svg version="1.1" id="Layer_1" xmlns="http://www.w3.org/2000/svg" xmlns:xlink="http://www.w3.org/1999/xlink" x="0px" y="0px"
	 viewBox="0 0 600 600" style="enable-background:new 0 0 600 600;" xml:space="preserve">
<style type="text/css">
	.st0{fill:#5AAEF2;}
	.st1{fill:#FFFFFF;}
	.st2{fill:none;}
</style>
<circle class="st0" cx="300" cy="300" r="70.2"/>
<g>
	<circle class="st1" cx="299.9" cy="518.4" r="16.4"/>
	<g>
		<path class="st2" d="M442.7,442.6c5.2-5.2,13.1-6.2,19.3-2.9c33.6-38.8,51.9-87.9,51.9-139.8c0-27.1-5-53.5-14.6-78
			c-5,0.8-10.3-0.7-14.2-4.6c-6.4-6.4-6.4-16.8,0-23.2c0.2-0.2,0.4-0.4,0.6-0.5c-9.3-16.3-20.9-31.4-34.5-45
			c-36.7-36.7-84.4-58.4-135.8-62c-2.1,6.6-8.3,11.3-15.6,11.3c-7.3,0-13.4-4.7-15.6-11.3c-51.3,3.7-99,25.4-135.6,62
			c-13.6,13.6-25.1,28.7-34.4,44.9c0.2,0.2,0.4,0.4,0.6,0.6c6.4,6.4,6.4,16.8,0,23.2c-3.9,3.9-9.2,5.4-14.2,4.6
			c-9.6,24.5-14.6,50.9-14.6,78c0,52,18.4,101.2,52.1,140c6.1-3,13.7-2,18.8,3.1c5.1,5.1,6.1,12.7,3.1,18.8
			c38.8,33.6,87.9,52,139.9,52c51.9,0,101-18.3,139.8-51.9C436.5,455.8,437.4,447.9,442.7,442.6z"/>
		<path class="st0" d="M522.5,300c0-28.4-5.3-55.9-15.3-81.5c0.4-0.3,0.8-0.7,1.2-1.1c6.4-6.4,6.4-16.8,0-23.2
			c-4.1-4.1-9.7-5.5-14.9-4.4c-9.7-17-21.8-32.9-36-47.1c-39.3-39.3-89.9-60.8-141.4-64.5c-1.6-7.4-8.2-12.9-16-12.9
			c-7.9,0-14.4,5.6-16,13c-51.5,3.7-101.9,25.2-141.2,64.5c-14.2,14.2-26.3,30.1-36,47.1c-5.2-1.1-10.9,0.4-14.9,4.5
			c-6.4,6.4-6.4,16.8,0,23.2c0.4,0.4,0.8,0.7,1.2,1.1c-10.1,25.6-15.3,53.2-15.3,81.5c0,54.1,19.1,105.2,54.2,145.6
			c-4.3,6.4-3.6,15.1,2.1,20.7c5.6,5.6,14.3,6.3,20.7,2c83.3,72.2,207.9,72.1,291.2-0.1c6.3,3.9,14.7,3.1,20.2-2.4
			c5.5-5.5,6.2-13.8,2.4-20.1C503.3,405.3,522.5,354.1,522.5,300z M160.1,461.9c3-6.1,2-13.7-3.1-18.8c-5.1-5.1-12.7-6.1-18.8-3.1
			c-33.7-38.8-52.1-88-52.1-140c0-27.1,5-53.5,14.6-78c5,0.8,10.3-0.7,14.2-4.6c6.4-6.4,6.4-16.8,0-23.2c-0.2-0.2-0.4-0.4-0.6-0.6
			c9.3-16.2,20.9-31.4,34.4-44.9c36.6-36.6,84.3-58.3,135.6-62c2.1,6.5,8.3,11.3,15.6,11.3c7.3,0,13.4-4.7,15.6-11.3
			c51.4,3.6,99.1,25.3,135.8,62c13.6,13.6,25.1,28.7,34.5,45c-0.2,0.2-0.4,0.4-0.6,0.5c-6.4,6.4-6.4,16.8,0,23.2
			c3.9,3.9,9.2,5.4,14.2,4.6c9.6,24.5,14.6,50.9,14.6,78c0,51.9-18.3,101-51.9,139.8c-6.2-3.3-14.1-2.4-19.3,2.9
			c-5.2,5.2-6.2,13.1-2.9,19.3c-38.8,33.6-87.9,51.9-139.8,51.9C248,513.8,198.9,495.5,160.1,461.9z"/>
	</g>
</g>
<g>
	<path class="st2" d="M300,433.6c7.2,0,13.2,4.6,15.5,11c73-7.8,130-69.7,130-144.7c0-75-57-136.9-130-144.7
		c-2.2,6.5-8.3,11.1-15.5,11.1c-7.2,0-13.3-4.6-15.5-11.1c-73,7.7-130,69.7-130,144.7c0,75,57.1,136.9,130.1,144.7
		C286.8,438.2,292.9,433.6,300,433.6z"/>
	<path class="st0" d="M300,466.4c8,0,14.6-5.7,16.1-13.3c77.4-8.1,137.9-73.7,137.9-153.2c0-79.5-60.5-145.1-138-153.2
		c-1.5-7.5-8.1-13.1-16.1-13.1c-7.9,0-14.5,5.6-16.1,13.1c-77.4,8-138,73.7-138,153.2c0,79.5,60.6,145.2,138,153.2
		C285.4,460.7,292.1,466.4,300,466.4z M154.5,299.9c0-75,57-136.9,130-144.7c2.2,6.5,8.3,11.1,15.5,11.1c7.2,0,13.3-4.6,15.5-11.1
		c73,7.8,130,69.7,130,144.7c0,75-57,136.9-130,144.7c-2.2-6.4-8.3-11-15.5-11c-7.2,0-13.2,4.6-15.5,11
		C211.6,436.9,154.5,375,154.5,299.9z"/>
</g>
</svg>
