<?xml version="1.0" encoding="utf-8"?>
<!-- Generator: Adobe Illustrator 22.1.0, SVG Export Plug-In . SVG Version: 6.00 Build 0)  -->
<svg version="1.1" id="Layer_1" xmlns="http://www.w3.org/2000/svg" xmlns:xlink="http://www.w3.org/1999/xlink" x="0px" y="0px"
	 viewBox="0 0 600 600" style="enable-background:new 0 0 600 600;" xml:space="preserve">
<style type="text/css">
	.st0{fill:#5AAEF2;}
	.st1{fill:none;}
</style>
<circle class="st0" cx="300" cy="300" r="70.2"/>
<g>
	<path class="st1" d="M475.3,404.2c0-9.1,7.3-16.4,16.4-16.4c1.1,0,2.2,0.1,3.3,0.3c12.4-27.3,18.9-57.2,18.9-88.2
		c0-30.9-6.5-60.8-18.9-88.1c-1,0.2-2.1,0.3-3.2,0.3c-9.1,0-16.4-7.3-16.4-16.4c0-4.4,1.8-8.5,4.6-11.4
		c-8.2-12.7-17.8-24.7-28.8-35.7c-36.7-36.7-84.4-58.4-135.8-62c-2.1,6.6-8.3,11.3-15.6,11.3c-7.3,0-13.4-4.7-15.6-11.3
		c-51.3,3.7-99,25.4-135.6,62c-10.9,10.9-20.4,22.7-28.5,35.3c2.8,2.9,4.6,6.9,4.6,11.4c0,9.1-7.3,16.4-16.4,16.4
		c-1.1,0-2.2-0.1-3.2-0.3c-12.5,27.5-19.1,57.5-19.1,88.6c0,30.9,6.5,60.8,18.9,88.2c1.1-0.2,2.1-0.3,3.3-0.3
		c9.1,0,16.4,7.3,16.4,16.4c0,4.5-1.8,8.5-4.7,11.5c8.2,12.7,17.8,24.7,28.8,35.6c36.6,36.6,84.3,58.3,135.6,62
		c2.2-6.5,8.3-11.3,15.6-11.3c7.3,0,13.4,4.7,15.6,11.3c51.4-3.6,99.1-25.3,135.8-62c10.9-10.9,20.5-22.9,28.7-35.6
		C477.1,412.7,475.3,408.7,475.3,404.2z"/>
	<path class="st0" d="M502.7,392c13-28.5,19.8-59.8,19.8-92.1c0-32.3-6.8-63.5-19.7-92c3.4-3,5.5-7.4,5.5-12.2
		c0-9.1-7.3-16.4-16.4-16.4c-1.5,0-3,0.2-4.4,0.6c-8.6-13.4-18.6-25.9-30.1-37.4c-39.3-39.3-89.9-60.8-141.4-64.5
		c-1.6-7.4-8.2-12.9-16-12.9c-7.9,0-14.4,5.6-16,13c-51.5,3.7-101.9,25.2-141.2,64.5c-11.4,11.4-21.3,23.7-29.8,36.9
		c-1.4-0.4-2.9-0.6-4.5-0.6c-9.1,0-16.4,7.3-16.4,16.4c0,4.9,2.1,9.2,5.5,12.2c-13.1,28.6-19.9,60-19.9,92.4
		c0,32.3,6.8,63.5,19.8,92c-3.4,3-5.5,7.3-5.5,12.2c0,9.1,7.3,16.4,16.4,16.4c1.5,0,2.9-0.2,4.3-0.6c8.6,13.3,18.6,25.8,30.1,37.3
		c39.3,39.3,89.7,60.8,141.2,64.5c1.6,7.4,8.1,13,16,13c7.9,0,14.5-5.6,16-13c51.6-3.7,102.1-25.2,141.4-64.5
		c11.5-11.5,21.5-24,30.1-37.3c1.4,0.4,2.8,0.6,4.3,0.6c9.1,0,16.4-7.3,16.4-16.4C508.1,399.4,506,395,502.7,392z M451.3,451.3
		c-36.7,36.7-84.4,58.4-135.8,62c-2.2-6.5-8.3-11.3-15.6-11.3c-7.3,0-13.4,4.7-15.6,11.3c-51.3-3.7-99-25.4-135.6-62
		c-11-11-20.6-22.9-28.8-35.6c2.9-3,4.7-7,4.7-11.5c0-9.1-7.3-16.4-16.4-16.4c-1.1,0-2.2,0.1-3.3,0.3
		c-12.3-27.3-18.9-57.2-18.9-88.2c0-31.1,6.6-61.1,19.1-88.6c1,0.2,2.1,0.3,3.2,0.3c9.1,0,16.4-7.3,16.4-16.4
		c0-4.4-1.8-8.4-4.6-11.4c8.2-12.6,17.7-24.4,28.5-35.3c36.6-36.6,84.3-58.3,135.6-62c2.1,6.5,8.3,11.3,15.6,11.3
		c7.3,0,13.4-4.7,15.6-11.3c51.4,3.6,99.1,25.3,135.8,62c11,11,20.6,22.9,28.8,35.7c-2.9,3-4.6,7-4.6,11.4c0,9.1,7.3,16.4,16.4,16.4
		c1.1,0,2.2-0.1,3.2-0.3c12.3,27.3,18.9,57.2,18.9,88.1c0,30.9-6.5,60.8-18.9,88.2c-1.1-0.2-2.2-0.3-3.3-0.3
		c-9.1,0-16.4,7.3-16.4,16.4c0,4.5,1.8,8.5,4.7,11.5C471.8,428.4,462.2,440.3,451.3,451.3z"/>
</g>
<g>
	<path class="st1" d="M433.6,300c0-7.2,4.6-13.2,11-15.5c-7.8-73-69.7-130-144.7-130c-75,0-136.9,57-144.7,130
		c6.5,2.2,11.1,8.3,11.1,15.5c0,7.2-4.6,13.3-11.1,15.5c7.7,73,69.7,130,144.7,130c75,0,136.9-57.1,144.7-130.1
		C438.2,313.2,433.6,307.1,433.6,300z"/>
	<path class="st0" d="M466.4,300c0-8-5.7-14.6-13.3-16.1c-8.1-77.4-73.7-137.9-153.2-137.9c-79.5,0-145.1,60.5-153.2,138
		c-7.5,1.5-13.1,8.1-13.1,16.1c0,7.9,5.6,14.5,13.1,16.1c8,77.4,73.7,138,153.2,138c79.5,0,145.2-60.6,153.2-138
		C460.7,314.6,466.4,307.9,466.4,300z M299.9,445.5c-75,0-136.9-57-144.7-130c6.5-2.2,11.1-8.3,11.1-15.5c0-7.2-4.6-13.3-11.1-15.5
		c7.8-73,69.7-130,144.7-130c75,0,136.9,57,144.7,130c-6.4,2.2-11,8.3-11,15.5c0,7.2,4.6,13.2,11,15.5
		C436.9,388.4,375,445.5,299.9,445.5z"/>
</g>
</svg>
