<?xml version="1.0" encoding="utf-8"?>
<!-- Generator: Adobe Illustrator 22.1.0, SVG Export Plug-In . SVG Version: 6.00 Build 0)  -->
<svg version="1.1" id="Layer_1" xmlns="http://www.w3.org/2000/svg" xmlns:xlink="http://www.w3.org/1999/xlink" x="0px" y="0px"
	 viewBox="0 0 800 800" style="enable-background:new 0 0 800 800;" xml:space="preserve">
<style type="text/css">
	.st0{fill:#FFFFFF;}
	.st1{fill:#E0417A;}
</style>
<g>
	<path class="st0" d="M622,383.9c-3.4-48-22.1-93.1-53.7-129.6c4.2-6.4,3.4-15-2.1-20.5c-5.6-5.6-14.2-6.3-20.5-2.1
		c-36.4-31.6-81.5-50.3-129.5-53.7c-1.6-7.4-8.1-13-16-13s-14.5,5.6-16,13c-49.3,3.5-94.3,23.2-129.6,53.8c-6.4-4.2-15-3.5-20.6,2.1
		s-6.3,14.2-2.1,20.6c-30.5,35.3-50.2,80.2-53.7,129.5c-7.4,1.6-13,8.1-13,16s5.6,14.4,13,16c3.4,48,22.1,93.1,53.7,129.5
		c-4.2,6.4-3.5,15,2.1,20.6s14.2,6.3,20.6,2.1c36.4,31.6,81.5,50.3,129.5,53.7c1.6,7.4,8.1,13,16,13s14.5-5.6,16-13
		c49.3-3.5,94.2-23.2,129.4-53.7c6.4,4.2,15,3.5,20.6-2.1s6.3-14.2,2.1-20.6c30.5-35.3,50.2-80.2,53.8-129.5c7.4-1.6,13-8.1,13-16
		C634.9,392.1,629.4,385.5,622,383.9z M613.4,415.5c-3.3,46.1-21.3,89.3-51.6,124.3c-6.1-3.1-13.8-2-18.9,3.1
		c-5.1,5.1-6.1,12.7-3.1,18.9c-35,30.3-78.2,48.2-124.2,51.6c-2.2-6.5-8.3-11.3-15.6-11.3c-7.3,0-13.4,4.7-15.6,11.3
		c-46.1-3.3-89.3-21.2-124.3-51.5c3.1-6.1,2-13.8-3.1-18.9c-5.1-5.1-12.8-6.1-18.9-3.1c-30.3-35-48.3-78.2-51.6-124.3
		c6.5-2.2,11.3-8.3,11.3-15.6c0-7.3-4.7-13.4-11.3-15.6c3.3-46.1,21.2-89.3,51.6-124.3c6.1,3,13.8,2,18.9-3.1
		c5.1-5.1,6.1-12.8,3.1-18.9c35-30.4,78.3-48.3,124.4-51.6c2.2,6.5,8.3,11.3,15.6,11.3c7.3,0,13.4-4.7,15.6-11.3
		c46.1,3.3,89.3,21.3,124.3,51.6c-3.1,6.1-2.1,13.8,3.1,18.9c5.1,5.1,12.8,6.1,18.9,3.1c30.3,35,48.2,78.2,51.5,124.3
		c-6.5,2.2-11.3,8.3-11.3,15.6C602.1,407.2,606.9,413.3,613.4,415.5z"/>
	<circle class="st0" cx="399.9" cy="400.1" r="70.2"/>
	<g>
		<path class="st1" d="M400,670.6c-7.3,0-13.4,4.8-15.6,11.3c10.3,0.6,20.7,0.6,31.2,0.1C413.5,675.4,407.3,670.6,400,670.6z"/>
		<path class="st1" d="M384,690.5c1.6,7.4,8.2,12.9,16,12.9s14.4-5.5,16-12.8C405.3,691.1,394.6,691.1,384,690.5z"/>
		<path class="st0" d="M670.1,291.7L670.1,291.7c-13-32.4-31.2-61.2-53.3-85.8c4.2-6.4,3.5-15-2.1-20.6s-14.3-6.3-20.7-2.1
			c-49.2-43.9-112.2-70-178-73.7c-1.6-7.4-8.2-12.9-16-12.9s-14.4,5.5-16,12.8c-30.9,1.7-62.1,8.3-92.4,20.5
			c-32,12.8-60.9,30.9-85.8,53.2c-6.3-4-14.9-3.3-20.4,2.2s-6.3,14.1-2.2,20.4c-20.9,23.4-38,50.2-50.7,79.9
			c-30.6,71.6-31.5,150.6-2.6,222.7c13,32.4,31.2,61.2,53.3,85.8c-4,6.3-3.3,14.8,2.2,20.4c5.5,5.5,14.1,6.3,20.4,2.2
			c49.2,43.9,112.2,70.1,178.1,73.8c10.6,0.6,21.3,0.6,32,0.1c30.9-1.7,62-8.4,92.3-20.5c32-12.8,61-30.9,85.9-53.3
			c6.3,4,14.9,3.3,20.4-2.2s6.3-14.1,2.2-20.4c20.8-23.3,38-50.2,50.6-79.8C698.1,442.8,699,363.7,670.1,291.7z M610.5,588.4
			c-6.2-3.1-13.9-2.2-19,3c-5.2,5.2-6.2,12.9-3,19.1c-24.2,21.7-52.3,39.2-83.3,51.7c-29.4,11.8-59.6,18.3-89.5,19.9
			c-10.4,0.6-20.8,0.5-31.2-0.1c-63.9-3.6-125.1-29-172.8-71.6c3.2-6.2,2.2-13.9-3-19.1c-5.2-5.2-12.9-6.2-19.1-3
			c-21.4-23.9-39.1-51.8-51.7-83.2c-28.1-70-27.2-146.7,2.5-216.1c12.3-28.8,28.9-54.9,49.2-77.5c6.2,3.2,13.9,2.2,19.1-3
			c5.2-5.2,6.2-12.9,3-19.1c24.2-21.6,52.2-39.1,83.3-51.6c29.4-11.8,59.6-18.3,89.6-19.9c2.1,6.6,8.3,11.4,15.6,11.4
			c7.3,0,13.5-4.8,15.6-11.3c64,3.6,125.1,29,172.8,71.6c-3,6.1-2,13.7,3.1,18.8s12.7,6.1,18.8,3.1c21.4,23.9,39.1,51.8,51.7,83.3
			l0,0c28.1,69.9,27.2,146.7-2.5,216.1C647.4,539.7,630.7,565.7,610.5,588.4z"/>
	</g>
	<path class="st0" d="M554.1,400.1c0-79.5-60.6-145.2-138-153.2c-1.5-7.5-8.1-13.2-16.1-13.2s-14.6,5.7-16.1,13.2
		C306.5,255,246,320.6,246,400.1s60.5,145.1,137.9,153.2c1.5,7.5,8.1,13.2,16.1,13.2s14.6-5.7,16.1-13.2
		C493.5,545.3,554.1,479.7,554.1,400.1z M415.4,544.8c-2.2-6.4-8.3-11-15.5-11s-13.2,4.6-15.5,11c-73-7.8-130-69.7-130-144.7
		s57-136.9,130-144.7c2.2,6.4,8.3,11,15.5,11s13.2-4.6,15.5-11c73,7.7,130.1,69.7,130.1,144.7S488.4,537.1,415.4,544.8z"/>
</g>
</svg>
