<?xml version="1.0" encoding="utf-8"?>
<!-- Generator: Adobe Illustrator 22.1.0, SVG Export Plug-In . SVG Version: 6.00 Build 0)  -->
<svg version="1.1" id="Layer_1" xmlns="http://www.w3.org/2000/svg" xmlns:xlink="http://www.w3.org/1999/xlink" x="0px" y="0px"
	 viewBox="0 0 500 500" style="enable-background:new 0 0 500 500;" xml:space="preserve">
<style type="text/css">
	.st0{fill:#E0417A;}
	.st1{fill:#FFFFFF;}
</style>
<circle class="st0" cx="250" cy="250" r="245"/>
<g>
	<g>
		<path class="st1" d="M346.2304688,365.4001465c0,13.4169922-7.5927734,20.1191406-22.7763672,20.1191406H179.203125
			c-6.5839844,0-11.7675781-1.9570313-15.5634766-5.8837891c-3.7958984-3.9208984-5.6943359-8.7900391-5.6943359-14.6152344
			c0-7.5917969,2.90625-14.4248047,8.7314453-20.4980469l86.5498047-93.0039063
			c10.6289063-11.637207,18.4111328-22.331543,23.3457031-32.0766602
			c4.9355469-9.7392578,7.4023438-19.4194336,7.4023438-29.0400391c0-11.8920898-3.4160156-21.0024414-10.2490234-27.331543
			c-6.8330078-6.3227539-16.578125-9.4902344-29.2294922-9.4902344c-10.3798828,0-20.4394531,1.9633789-30.1787109,5.8842773
			c-9.7451172,3.9262695-19.5498047,9.300293-29.4189453,16.1333008c-2.5332031,1.7734375-5.0664063,3.2265625-7.5927734,4.3652344
			c-2.5322266,1.1386719-5.0654297,1.7080078-7.5927734,1.7080078c-4.3056641,0-8.0361328-2.0224609-11.1972656-6.0732422
			c-3.1679688-4.0454102-4.7460938-8.8554688-4.7460938-14.425293c0-3.7958984,0.6943359-7.0820313,2.0878906-9.8696289
			c1.3886719-2.7817383,3.6074219-5.4389648,6.6435547-7.9716797c11.1337891-8.8554688,24.1650391-15.878418,39.0996094-21.0683594
			c14.9287109-5.184082,29.8583984-7.7817383,44.7929688-7.7817383c26.0625,0,46.8818359,6.5834961,62.4453125,19.7392578
			c15.5644531,13.1616211,23.3457031,30.8789063,23.3457031,53.1450195c0,15.4394531-3.2919922,29.9296875-9.8691406,43.4648438
			c-6.5839844,13.5415039-17.7167969,28.6601563-33.4052734,45.3632813l-65.671875,69.8466797h100.2158203
			C338.6376953,346.0397949,346.2304688,352.4938965,346.2304688,365.4001465z"/>
	</g>
</g>
</svg>
