<?xml version="1.0" encoding="utf-8"?>
<!-- Generator: Adobe Illustrator 22.1.0, SVG Export Plug-In . SVG Version: 6.00 Build 0)  -->
<svg version="1.1" id="Layer_1" xmlns="http://www.w3.org/2000/svg" xmlns:xlink="http://www.w3.org/1999/xlink" x="0px" y="0px"
	 viewBox="0 0 1000 1000" style="enable-background:new 0 0 1000 1000;" xml:space="preserve">
<style type="text/css">
	.st0{fill:#E0417A;}
	.st1{fill:#854EA5;}
	.st2{fill:#FFB743;}
	.st3{fill:#FFFFFF;}
</style>
<circle class="st0" cx="500" cy="500" r="480"/>
<path class="st3" d="M712.528,551.472H287.472C259.162,551.472,236,528.309,236,500v0c0-28.309,23.162-51.472,51.472-51.472h425.057
	C740.838,448.528,764,471.691,764,500v0C764,528.309,740.838,551.472,712.528,551.472z"/>
<path class="st3" d="M448.528,712.528V287.472C448.528,259.162,471.691,236,500,236h0c28.309,0,51.472,23.162,51.472,51.472v425.057
	C551.472,740.838,528.309,764,500,764h0C471.691,764,448.528,740.838,448.528,712.528z"/>
</svg>
