<?xml version="1.0" encoding="utf-8"?>
<!-- Generator: Adobe Illustrator 22.1.0, SVG Export Plug-In . SVG Version: 6.00 Build 0)  -->
<svg version="1.1" id="Layer_1" xmlns="http://www.w3.org/2000/svg" xmlns:xlink="http://www.w3.org/1999/xlink" x="0px" y="0px"
	 viewBox="0 0 1920 767.969" style="enable-background:new 0 0 1920 767.969;" xml:space="preserve">
<style type="text/css">
	.periodic-st0{fill:#CEDAF3;}
</style>
<path class="periodic-st0" d="M149.028,45.013H82.667c-3.799,0-6.89,3.091-6.89,6.89v66.361c0,3.799,3.091,6.89,6.89,6.89h66.361
	c3.799,0,6.89-3.091,6.89-6.89V51.903C155.918,48.104,152.827,45.013,149.028,45.013z"/>
<path class="periodic-st0" d="M149.028,144.647H82.667c-3.799,0-6.89,3.091-6.89,6.89v66.361c0,3.799,3.091,6.89,6.89,6.89h66.361
	c3.799,0,6.89-3.091,6.89-6.89v-66.361C155.918,147.738,152.827,144.647,149.028,144.647z"/>
<path class="periodic-st0" d="M149.028,244.281H82.667c-3.799,0-6.89,3.091-6.89,6.89v66.361c0,3.799,3.091,6.89,6.89,6.89h66.361
	c3.799,0,6.89-3.091,6.89-6.89V251.17C155.918,247.372,152.827,244.281,149.028,244.281z"/>
<path class="periodic-st0" d="M149.028,343.915H82.667c-3.799,0-6.89,3.091-6.89,6.89v66.361c0,3.799,3.091,6.89,6.89,6.89h66.361
	c3.799,0,6.89-3.091,6.89-6.89v-66.361C155.918,347.005,152.827,343.915,149.028,343.915z"/>
<path class="periodic-st0" d="M149.028,443.548H82.667c-3.799,0-6.89,3.091-6.89,6.89v66.361c0,3.799,3.091,6.89,6.89,6.89h66.361
	c3.799,0,6.89-3.091,6.89-6.89v-66.361C155.918,446.639,152.827,443.548,149.028,443.548z"/>
<path class="periodic-st0" d="M149.028,543.182H82.667c-3.799,0-6.89,3.091-6.89,6.89v66.36c0,3.8,3.091,6.891,6.89,6.891h66.361
	c3.799,0,6.89-3.091,6.89-6.891v-66.36C155.918,546.273,152.827,543.182,149.028,543.182z"/>
<path class="periodic-st0" d="M149.028,642.816H82.667c-3.799,0-6.89,3.091-6.89,6.89v66.36c0,3.799,3.091,6.89,6.89,6.89h66.361
	c3.799,0,6.89-3.091,6.89-6.89v-66.36C155.918,645.907,152.827,642.816,149.028,642.816z"/>
<path class="periodic-st0" d="M248.34,144.647h-66.361c-3.799,0-6.89,3.091-6.89,6.89v66.361c0,3.799,3.091,6.89,6.89,6.89h66.361
	c3.799,0,6.89-3.091,6.89-6.89v-66.361C255.23,147.738,252.139,144.647,248.34,144.647z"/>
<path class="periodic-st0" d="M248.34,244.281h-66.361c-3.799,0-6.89,3.091-6.89,6.89v66.361c0,3.799,3.091,6.89,6.89,6.89h66.361
	c3.799,0,6.89-3.091,6.89-6.89V251.17C255.23,247.372,252.139,244.281,248.34,244.281z"/>
<path class="periodic-st0" d="M248.34,343.915h-66.361c-3.799,0-6.89,3.091-6.89,6.89v66.361c0,3.799,3.091,6.89,6.89,6.89h66.361
	c3.799,0,6.89-3.091,6.89-6.89v-66.361C255.23,347.005,252.139,343.915,248.34,343.915z"/>
<path class="periodic-st0" d="M248.34,443.548h-66.361c-3.799,0-6.89,3.091-6.89,6.89v66.361c0,3.799,3.091,6.89,6.89,6.89h66.361
	c3.799,0,6.89-3.091,6.89-6.89v-66.361C255.23,446.639,252.139,443.548,248.34,443.548z"/>
<path class="periodic-st0" d="M248.34,543.182h-66.361c-3.799,0-6.89,3.091-6.89,6.89v66.36c0,3.8,3.091,6.891,6.89,6.891h66.361
	c3.799,0,6.89-3.091,6.89-6.891v-66.36C255.23,546.273,252.139,543.182,248.34,543.182z"/>
<path class="periodic-st0" d="M248.34,642.816h-66.361c-3.799,0-6.89,3.091-6.89,6.89v66.36c0,3.799,3.091,6.89,6.89,6.89h66.361
	c3.799,0,6.89-3.091,6.89-6.89v-66.36C255.23,645.907,252.139,642.816,248.34,642.816z"/>
<path class="periodic-st0" d="M347.652,343.915h-66.361c-3.799,0-6.89,3.091-6.89,6.89v66.361c0,3.799,3.091,6.89,6.89,6.89h66.361
	c3.799,0,6.89-3.091,6.89-6.89v-66.361C354.542,347.005,351.451,343.915,347.652,343.915z"/>
<path class="periodic-st0" d="M347.652,443.548h-66.361c-3.799,0-6.89,3.091-6.89,6.89v66.361c0,3.799,3.091,6.89,6.89,6.89h66.361
	c3.799,0,6.89-3.091,6.89-6.89v-66.361C354.542,446.639,351.451,443.548,347.652,443.548z"/>
<path class="periodic-st0" d="M347.652,543.182h-66.361c-3.799,0-6.89,3.091-6.89,6.89v66.36c0,3.8,3.091,6.891,6.89,6.891h66.361
	c3.799,0,6.89-3.091,6.89-6.891v-66.36C354.542,546.273,351.451,543.182,347.652,543.182z"/>
<path class="periodic-st0" d="M347.652,642.816h-66.361c-3.799,0-6.89,3.091-6.89,6.89v66.36c0,3.799,3.091,6.89,6.89,6.89h66.361
	c3.799,0,6.89-3.091,6.89-6.89v-66.36C354.542,645.907,351.451,642.816,347.652,642.816z"/>
<path class="periodic-st0" d="M446.964,343.915h-66.361c-3.799,0-6.89,3.091-6.89,6.89v66.361c0,3.799,3.091,6.89,6.89,6.89h66.361
	c3.799,0,6.89-3.091,6.89-6.89v-66.361C453.854,347.005,450.763,343.915,446.964,343.915z"/>
<path class="periodic-st0" d="M446.964,443.548h-66.361c-3.799,0-6.89,3.091-6.89,6.89v66.361c0,3.799,3.091,6.89,6.89,6.89h66.361
	c3.799,0,6.89-3.091,6.89-6.89v-66.361C453.854,446.639,450.763,443.548,446.964,443.548z"/>
<path class="periodic-st0" d="M446.964,543.182h-66.361c-3.799,0-6.89,3.091-6.89,6.89v66.36c0,3.8,3.091,6.891,6.89,6.891h66.361
	c3.799,0,6.89-3.091,6.89-6.891v-66.36C453.854,546.273,450.763,543.182,446.964,543.182z"/>
<path class="periodic-st0" d="M446.964,642.816h-66.361c-3.799,0-6.89,3.091-6.89,6.89v66.36c0,3.799,3.091,6.89,6.89,6.89h66.361
	c3.799,0,6.89-3.091,6.89-6.89v-66.36C453.854,645.907,450.763,642.816,446.964,642.816z"/>
<path class="periodic-st0" d="M546.276,343.915h-66.361c-3.799,0-6.89,3.091-6.89,6.89v66.361c0,3.799,3.091,6.89,6.89,6.89h66.361
	c3.799,0,6.89-3.091,6.89-6.89v-66.361C553.166,347.005,550.075,343.915,546.276,343.915z"/>
<path class="periodic-st0" d="M546.276,443.548h-66.361c-3.799,0-6.89,3.091-6.89,6.89v66.361c0,3.799,3.091,6.89,6.89,6.89h66.361
	c3.799,0,6.89-3.091,6.89-6.89v-66.361C553.166,446.639,550.075,443.548,546.276,443.548z"/>
<path class="periodic-st0" d="M546.276,543.182h-66.361c-3.799,0-6.89,3.091-6.89,6.89v66.36c0,3.8,3.091,6.891,6.89,6.891h66.361
	c3.799,0,6.89-3.091,6.89-6.891v-66.36C553.166,546.273,550.075,543.182,546.276,543.182z"/>
<path class="periodic-st0" d="M546.276,642.816h-66.361c-3.799,0-6.89,3.091-6.89,6.89v66.36c0,3.799,3.091,6.89,6.89,6.89h66.361
	c3.799,0,6.89-3.091,6.89-6.89v-66.36C553.166,645.907,550.075,642.816,546.276,642.816z"/>
<path class="periodic-st0" d="M645.588,343.915h-66.361c-3.799,0-6.89,3.091-6.89,6.89v66.361c0,3.799,3.091,6.89,6.89,6.89h66.361
	c3.799,0,6.89-3.091,6.89-6.89v-66.361C652.478,347.005,649.387,343.915,645.588,343.915z"/>
<path class="periodic-st0" d="M645.588,443.548h-66.361c-3.799,0-6.89,3.091-6.89,6.89v66.361c0,3.799,3.091,6.89,6.89,6.89h66.361
	c3.799,0,6.89-3.091,6.89-6.89v-66.361C652.478,446.639,649.387,443.548,645.588,443.548z"/>
<path class="periodic-st0" d="M645.588,543.182h-66.361c-3.799,0-6.89,3.091-6.89,6.89v66.36c0,3.8,3.091,6.891,6.89,6.891h66.361
	c3.799,0,6.89-3.091,6.89-6.891v-66.36C652.478,546.273,649.387,543.182,645.588,543.182z"/>
<path class="periodic-st0" d="M645.588,642.816h-66.361c-3.799,0-6.89,3.091-6.89,6.89v66.36c0,3.799,3.091,6.89,6.89,6.89h66.361
	c3.799,0,6.89-3.091,6.89-6.89v-66.36C652.478,645.907,649.387,642.816,645.588,642.816z"/>
<path class="periodic-st0" d="M744.9,343.915h-66.36c-3.799,0-6.89,3.091-6.89,6.89v66.361c0,3.799,3.091,6.89,6.89,6.89h66.36
	c3.799,0,6.89-3.091,6.89-6.89v-66.361C751.79,347.005,748.699,343.915,744.9,343.915z"/>
<path class="periodic-st0" d="M744.9,443.548h-66.36c-3.799,0-6.89,3.091-6.89,6.89v66.361c0,3.799,3.091,6.89,6.89,6.89h66.36
	c3.799,0,6.89-3.091,6.89-6.89v-66.361C751.79,446.639,748.699,443.548,744.9,443.548z"/>
<path class="periodic-st0" d="M744.9,543.182h-66.36c-3.799,0-6.89,3.091-6.89,6.89v66.36c0,3.8,3.091,6.891,6.89,6.891h66.36
	c3.799,0,6.89-3.091,6.89-6.891v-66.36C751.79,546.273,748.699,543.182,744.9,543.182z"/>
<path class="periodic-st0" d="M744.9,642.816h-66.36c-3.799,0-6.89,3.091-6.89,6.89v66.36c0,3.799,3.091,6.89,6.89,6.89h66.36
	c3.799,0,6.89-3.091,6.89-6.89v-66.36C751.79,645.907,748.699,642.816,744.9,642.816z"/>
<path class="periodic-st0" d="M844.212,343.915h-66.361c-3.799,0-6.89,3.091-6.89,6.89v66.361c0,3.799,3.091,6.89,6.89,6.89h66.361
	c3.799,0,6.89-3.091,6.89-6.89v-66.361C851.102,347.005,848.011,343.915,844.212,343.915z"/>
<path class="periodic-st0" d="M844.212,443.548h-66.361c-3.799,0-6.89,3.091-6.89,6.89v66.361c0,3.799,3.091,6.89,6.89,6.89h66.361
	c3.799,0,6.89-3.091,6.89-6.89v-66.361C851.102,446.639,848.011,443.548,844.212,443.548z"/>
<path class="periodic-st0" d="M844.212,543.182h-66.361c-3.799,0-6.89,3.091-6.89,6.89v66.36c0,3.8,3.091,6.891,6.89,6.891h66.361
	c3.799,0,6.89-3.091,6.89-6.891v-66.36C851.102,546.273,848.011,543.182,844.212,543.182z"/>
<path class="periodic-st0" d="M844.212,642.816h-66.361c-3.799,0-6.89,3.091-6.89,6.89v66.36c0,3.799,3.091,6.89,6.89,6.89h66.361
	c3.799,0,6.89-3.091,6.89-6.89v-66.36C851.102,645.907,848.011,642.816,844.212,642.816z"/>
<path class="periodic-st0" d="M943.524,343.915h-66.361c-3.799,0-6.89,3.091-6.89,6.89v66.361c0,3.799,3.091,6.89,6.89,6.89h66.361
	c3.799,0,6.89-3.091,6.89-6.89v-66.361C950.414,347.005,947.323,343.915,943.524,343.915z"/>
<path class="periodic-st0" d="M943.524,443.548h-66.361c-3.799,0-6.89,3.091-6.89,6.89v66.361c0,3.799,3.091,6.89,6.89,6.89h66.361
	c3.799,0,6.89-3.091,6.89-6.89v-66.361C950.414,446.639,947.323,443.548,943.524,443.548z"/>
<path class="periodic-st0" d="M943.524,543.182h-66.361c-3.799,0-6.89,3.091-6.89,6.89v66.36c0,3.8,3.091,6.891,6.89,6.891h66.361
	c3.799,0,6.89-3.091,6.89-6.891v-66.36C950.414,546.273,947.323,543.182,943.524,543.182z"/>
<path class="periodic-st0" d="M943.524,642.816h-66.361c-3.799,0-6.89,3.091-6.89,6.89v66.36c0,3.799,3.091,6.89,6.89,6.89h66.361
	c3.799,0,6.89-3.091,6.89-6.89v-66.36C950.414,645.907,947.323,642.816,943.524,642.816z"/>
<path class="periodic-st0" d="M1042.836,343.915h-66.361c-3.799,0-6.89,3.091-6.89,6.89v66.361c0,3.799,3.091,6.89,6.89,6.89h66.361
	c3.799,0,6.89-3.091,6.89-6.89v-66.361C1049.726,347.005,1046.635,343.915,1042.836,343.915z"/>
<path class="periodic-st0" d="M1042.836,443.548h-66.361c-3.799,0-6.89,3.091-6.89,6.89v66.361c0,3.799,3.091,6.89,6.89,6.89h66.361
	c3.799,0,6.89-3.091,6.89-6.89v-66.361C1049.726,446.639,1046.635,443.548,1042.836,443.548z"/>
<path class="periodic-st0" d="M1042.836,543.182h-66.361c-3.799,0-6.89,3.091-6.89,6.89v66.36c0,3.8,3.091,6.891,6.89,6.891h66.361
	c3.799,0,6.89-3.091,6.89-6.891v-66.36C1049.726,546.273,1046.635,543.182,1042.836,543.182z"/>
<path class="periodic-st0" d="M1042.836,642.816h-66.361c-3.799,0-6.89,3.091-6.89,6.89v66.36c0,3.799,3.091,6.89,6.89,6.89h66.361
	c3.799,0,6.89-3.091,6.89-6.89v-66.36C1049.726,645.907,1046.635,642.816,1042.836,642.816z"/>
<path class="periodic-st0" d="M1142.148,343.915h-66.361c-3.799,0-6.89,3.091-6.89,6.89v66.361c0,3.799,3.091,6.89,6.89,6.89h66.361
	c3.799,0,6.89-3.091,6.89-6.89v-66.361C1149.038,347.005,1145.947,343.915,1142.148,343.915z"/>
<path class="periodic-st0" d="M1142.148,443.548h-66.361c-3.799,0-6.89,3.091-6.89,6.89v66.361c0,3.799,3.091,6.89,6.89,6.89h66.361
	c3.799,0,6.89-3.091,6.89-6.89v-66.361C1149.038,446.639,1145.947,443.548,1142.148,443.548z"/>
<path class="periodic-st0" d="M1142.148,543.182h-66.361c-3.799,0-6.89,3.091-6.89,6.89v66.36c0,3.8,3.091,6.891,6.89,6.891h66.361
	c3.799,0,6.89-3.091,6.89-6.891v-66.36C1149.038,546.273,1145.947,543.182,1142.148,543.182z"/>
<path class="periodic-st0" d="M1142.148,642.816h-66.361c-3.799,0-6.89,3.091-6.89,6.89v66.36c0,3.799,3.091,6.89,6.89,6.89h66.361
	c3.799,0,6.89-3.091,6.89-6.89v-66.36C1149.038,645.907,1145.947,642.816,1142.148,642.816z"/>
<path class="periodic-st0" d="M1241.46,343.915h-66.36c-3.799,0-6.89,3.091-6.89,6.89v66.361c0,3.799,3.091,6.89,6.89,6.89h66.361
	c3.799,0,6.89-3.091,6.89-6.89v-66.361C1248.35,347.005,1245.259,343.915,1241.46,343.915z"/>
<path class="periodic-st0" d="M1241.46,443.548h-66.36c-3.799,0-6.89,3.091-6.89,6.89v66.361c0,3.799,3.091,6.89,6.89,6.89h66.361
	c3.799,0,6.89-3.091,6.89-6.89v-66.361C1248.35,446.639,1245.259,443.548,1241.46,443.548z"/>
<path class="periodic-st0" d="M1241.46,543.182h-66.36c-3.799,0-6.89,3.091-6.89,6.89v66.36c0,3.8,3.091,6.891,6.89,6.891h66.361
	c3.799,0,6.89-3.091,6.89-6.891v-66.36C1248.35,546.273,1245.259,543.182,1241.46,543.182z"/>
<path class="periodic-st0" d="M1241.46,642.816h-66.36c-3.799,0-6.89,3.091-6.89,6.89v66.36c0,3.799,3.091,6.89,6.89,6.89h66.361
	c3.799,0,6.89-3.091,6.89-6.89v-66.36C1248.35,645.907,1245.259,642.816,1241.46,642.816z"/>
<path class="periodic-st0" d="M1340.772,144.647h-66.361c-3.799,0-6.89,3.091-6.89,6.89v66.361c0,3.799,3.091,6.89,6.89,6.89h66.361
	c3.799,0,6.89-3.091,6.89-6.89v-66.361C1347.662,147.738,1344.571,144.647,1340.772,144.647z"/>
<path class="periodic-st0" d="M1340.772,244.281h-66.361c-3.799,0-6.89,3.091-6.89,6.89v66.361c0,3.799,3.091,6.89,6.89,6.89h66.361
	c3.799,0,6.89-3.091,6.89-6.89V251.17C1347.662,247.372,1344.571,244.281,1340.772,244.281z"/>
<path class="periodic-st0" d="M1340.772,343.915h-66.361c-3.799,0-6.89,3.091-6.89,6.89v66.361c0,3.799,3.091,6.89,6.89,6.89h66.361
	c3.799,0,6.89-3.091,6.89-6.89v-66.361C1347.662,347.005,1344.571,343.915,1340.772,343.915z"/>
<path class="periodic-st0" d="M1340.772,443.548h-66.361c-3.799,0-6.89,3.091-6.89,6.89v66.361c0,3.799,3.091,6.89,6.89,6.89h66.361
	c3.799,0,6.89-3.091,6.89-6.89v-66.361C1347.662,446.639,1344.571,443.548,1340.772,443.548z"/>
<path class="periodic-st0" d="M1340.772,543.182h-66.361c-3.799,0-6.89,3.091-6.89,6.89v66.36c0,3.8,3.091,6.891,6.89,6.891h66.361
	c3.799,0,6.89-3.091,6.89-6.891v-66.36C1347.662,546.273,1344.571,543.182,1340.772,543.182z"/>
<path class="periodic-st0" d="M1340.772,642.816h-66.361c-3.799,0-6.89,3.091-6.89,6.89v66.36c0,3.799,3.091,6.89,6.89,6.89h66.361
	c3.799,0,6.89-3.091,6.89-6.89v-66.36C1347.662,645.907,1344.571,642.816,1340.772,642.816z"/>
<path class="periodic-st0" d="M1440.084,144.647h-66.361c-3.799,0-6.89,3.091-6.89,6.89v66.361c0,3.799,3.091,6.89,6.89,6.89h66.361
	c3.799,0,6.89-3.091,6.89-6.89v-66.361C1446.974,147.738,1443.883,144.647,1440.084,144.647z"/>
<path class="periodic-st0" d="M1440.084,244.281h-66.361c-3.799,0-6.89,3.091-6.89,6.89v66.361c0,3.799,3.091,6.89,6.89,6.89h66.361
	c3.799,0,6.89-3.091,6.89-6.89V251.17C1446.974,247.372,1443.883,244.281,1440.084,244.281z"/>
<path class="periodic-st0" d="M1440.084,343.915h-66.361c-3.799,0-6.89,3.091-6.89,6.89v66.361c0,3.799,3.091,6.89,6.89,6.89h66.361
	c3.799,0,6.89-3.091,6.89-6.89v-66.361C1446.974,347.005,1443.883,343.915,1440.084,343.915z"/>
<path class="periodic-st0" d="M1440.084,443.548h-66.361c-3.799,0-6.89,3.091-6.89,6.89v66.361c0,3.799,3.091,6.89,6.89,6.89h66.361
	c3.799,0,6.89-3.091,6.89-6.89v-66.361C1446.974,446.639,1443.883,443.548,1440.084,443.548z"/>
<path class="periodic-st0" d="M1440.084,543.182h-66.361c-3.799,0-6.89,3.091-6.89,6.89v66.36c0,3.8,3.091,6.891,6.89,6.891h66.361
	c3.799,0,6.89-3.091,6.89-6.891v-66.36C1446.974,546.273,1443.883,543.182,1440.084,543.182z"/>
<path class="periodic-st0" d="M1440.084,642.816h-66.361c-3.799,0-6.89,3.091-6.89,6.89v66.36c0,3.799,3.091,6.89,6.89,6.89h66.361
	c3.799,0,6.89-3.091,6.89-6.89v-66.36C1446.974,645.907,1443.883,642.816,1440.084,642.816z"/>
<path class="periodic-st0" d="M1539.396,144.647h-66.361c-3.799,0-6.89,3.091-6.89,6.89v66.361c0,3.799,3.091,6.89,6.89,6.89h66.361
	c3.799,0,6.89-3.091,6.89-6.89v-66.361C1546.286,147.738,1543.195,144.647,1539.396,144.647z"/>
<path class="periodic-st0" d="M1539.396,244.281h-66.361c-3.799,0-6.89,3.091-6.89,6.89v66.361c0,3.799,3.091,6.89,6.89,6.89h66.361
	c3.799,0,6.89-3.091,6.89-6.89V251.17C1546.286,247.372,1543.195,244.281,1539.396,244.281z"/>
<path class="periodic-st0" d="M1539.396,343.915h-66.361c-3.799,0-6.89,3.091-6.89,6.89v66.361c0,3.799,3.091,6.89,6.89,6.89h66.361
	c3.799,0,6.89-3.091,6.89-6.89v-66.361C1546.286,347.005,1543.195,343.915,1539.396,343.915z"/>
<path class="periodic-st0" d="M1539.396,443.548h-66.361c-3.799,0-6.89,3.091-6.89,6.89v66.361c0,3.799,3.091,6.89,6.89,6.89h66.361
	c3.799,0,6.89-3.091,6.89-6.89v-66.361C1546.286,446.639,1543.195,443.548,1539.396,443.548z"/>
<path class="periodic-st0" d="M1539.396,543.182h-66.361c-3.799,0-6.89,3.091-6.89,6.89v66.36c0,3.8,3.091,6.891,6.89,6.891h66.361
	c3.799,0,6.89-3.091,6.89-6.891v-66.36C1546.286,546.273,1543.195,543.182,1539.396,543.182z"/>
<path class="periodic-st0" d="M1539.396,642.816h-66.361c-3.799,0-6.89,3.091-6.89,6.89v66.36c0,3.799,3.091,6.89,6.89,6.89h66.361
	c3.799,0,6.89-3.091,6.89-6.89v-66.36C1546.286,645.907,1543.195,642.816,1539.396,642.816z"/>
<path class="periodic-st0" d="M1638.708,144.647h-66.361c-3.799,0-6.89,3.091-6.89,6.89v66.361c0,3.799,3.091,6.89,6.89,6.89h66.361
	c3.799,0,6.89-3.091,6.89-6.89v-66.361C1645.598,147.738,1642.507,144.647,1638.708,144.647z"/>
<path class="periodic-st0" d="M1638.708,244.281h-66.361c-3.799,0-6.89,3.091-6.89,6.89v66.361c0,3.799,3.091,6.89,6.89,6.89h66.361
	c3.799,0,6.89-3.091,6.89-6.89V251.17C1645.598,247.372,1642.507,244.281,1638.708,244.281z"/>
<path class="periodic-st0" d="M1638.708,343.915h-66.361c-3.799,0-6.89,3.091-6.89,6.89v66.361c0,3.799,3.091,6.89,6.89,6.89h66.361
	c3.799,0,6.89-3.091,6.89-6.89v-66.361C1645.598,347.005,1642.507,343.915,1638.708,343.915z"/>
<path class="periodic-st0" d="M1638.708,443.548h-66.361c-3.799,0-6.89,3.091-6.89,6.89v66.361c0,3.799,3.091,6.89,6.89,6.89h66.361
	c3.799,0,6.89-3.091,6.89-6.89v-66.361C1645.598,446.639,1642.507,443.548,1638.708,443.548z"/>
<path class="periodic-st0" d="M1638.708,543.182h-66.361c-3.799,0-6.89,3.091-6.89,6.89v66.36c0,3.8,3.091,6.891,6.89,6.891h66.361
	c3.799,0,6.89-3.091,6.89-6.891v-66.36C1645.598,546.273,1642.507,543.182,1638.708,543.182z"/>
<path class="periodic-st0" d="M1638.708,642.816h-66.361c-3.799,0-6.89,3.091-6.89,6.89v66.36c0,3.799,3.091,6.89,6.89,6.89h66.361
	c3.799,0,6.89-3.091,6.89-6.89v-66.36C1645.598,645.907,1642.507,642.816,1638.708,642.816z"/>
<path class="periodic-st0" d="M1671.66,224.788c-3.799,0-6.89-3.091-6.89-6.89v-66.361c0-3.799,3.091-6.89,6.89-6.89h66.361
	c3.799,0,6.89,3.091,6.89,6.89v66.361c0,3.799-3.091,6.89-6.89,6.89L1671.66,224.788L1671.66,224.788z"/>
<path class="periodic-st0" d="M1671.66,324.421c-3.799,0-6.89-3.091-6.89-6.89V251.17c0-3.799,3.091-6.89,6.89-6.89h66.361
	c3.799,0,6.89,3.091,6.89,6.89v66.361c0,3.799-3.091,6.89-6.89,6.89L1671.66,324.421L1671.66,324.421z"/>
<path class="periodic-st0" d="M1671.66,424.055c-3.799,0-6.89-3.091-6.89-6.89v-66.361c0-3.799,3.091-6.89,6.89-6.89h66.361
	c3.799,0,6.89,3.091,6.89,6.89v66.361c0,3.799-3.091,6.89-6.89,6.89H1671.66z"/>
<path class="periodic-st0" d="M1671.66,523.689c-3.799,0-6.89-3.091-6.89-6.89v-66.361c0-3.799,3.091-6.89,6.89-6.89h66.361
	c3.799,0,6.89,3.091,6.89,6.89v66.361c0,3.799-3.091,6.89-6.89,6.89H1671.66z"/>
<path class="periodic-st0" d="M1671.66,623.323c-3.799,0-6.89-3.091-6.89-6.891v-66.36c0-3.799,3.091-6.89,6.89-6.89h66.361
	c3.799,0,6.89,3.091,6.89,6.89v66.36c0,3.8-3.091,6.891-6.89,6.891H1671.66z"/>
<path class="periodic-st0" d="M1738.021,642.816h-66.361c-3.799,0-6.89,3.091-6.89,6.89v66.36c0,3.799,3.091,6.89,6.89,6.89h66.361
	c3.799,0,6.89-3.091,6.89-6.89v-66.36C1744.91,645.907,1741.819,642.816,1738.021,642.816z"/>
<path class="periodic-st0" d="M1770.972,125.154c-3.799,0-6.89-3.091-6.89-6.89V51.903c0-3.799,3.091-6.89,6.89-6.89h66.361
	c3.799,0,6.89,3.091,6.89,6.89v66.361c0,3.799-3.091,6.89-6.89,6.89H1770.972z"/>
<path class="periodic-st0" d="M1770.972,224.788c-3.799,0-6.89-3.091-6.89-6.89v-66.361c0-3.799,3.091-6.89,6.89-6.89h66.361
	c3.799,0,6.89,3.091,6.89,6.89v66.361c0,3.799-3.091,6.89-6.89,6.89L1770.972,224.788L1770.972,224.788z"/>
<path class="periodic-st0" d="M1770.972,324.421c-3.799,0-6.89-3.091-6.89-6.89V251.17c0-3.799,3.091-6.89,6.89-6.89h66.361
	c3.799,0,6.89,3.091,6.89,6.89v66.361c0,3.799-3.091,6.89-6.89,6.89L1770.972,324.421L1770.972,324.421z"/>
<path class="periodic-st0" d="M1770.972,424.055c-3.799,0-6.89-3.091-6.89-6.89v-66.361c0-3.799,3.091-6.89,6.89-6.89h66.361
	c3.799,0,6.89,3.091,6.89,6.89v66.361c0,3.799-3.091,6.89-6.89,6.89H1770.972z"/>
<path class="periodic-st0" d="M1770.972,523.689c-3.799,0-6.89-3.091-6.89-6.89v-66.361c0-3.799,3.091-6.89,6.89-6.89h66.361
	c3.799,0,6.89,3.091,6.89,6.89v66.361c0,3.799-3.091,6.89-6.89,6.89H1770.972z"/>
<path class="periodic-st0" d="M1770.972,623.323c-3.799,0-6.89-3.091-6.89-6.891v-66.36c0-3.799,3.091-6.89,6.89-6.89h66.361
	c3.799,0,6.89,3.091,6.89,6.89v66.36c0,3.8-3.091,6.891-6.89,6.891H1770.972z"/>
<path class="periodic-st0" d="M1837.333,642.816h-66.361c-3.799,0-6.89,3.091-6.89,6.89v66.36c0,3.799,3.091,6.89,6.89,6.89h66.361
	c3.799,0,6.89-3.091,6.89-6.89v-66.36C1844.222,645.907,1841.131,642.816,1837.333,642.816z"/>
</svg>
