<?xml version="1.0" encoding="utf-8"?>
<!-- Generator: Adobe Illustrator 22.1.0, SVG Export Plug-In . SVG Version: 6.00 Build 0)  -->
<svg version="1.1" id="Layer_1" xmlns="http://www.w3.org/2000/svg" xmlns:xlink="http://www.w3.org/1999/xlink" x="0px" y="0px"
	 viewBox="0 0 1982.8 1982.8" style="enable-background:new 0 0 1982.8 1982.8;" xml:space="preserve">
<style type="text/css">
	.st0{fill:#F2F2F2;}
</style>
<path class="st0 splash-first-ring" d="M1729.8,979.5c0-25.3-18.1-46.4-42.1-51c-10.5-147.5-67.1-292.4-169.8-410.9c12.3-20,9.8-46.6-7.5-63.9
	c-17.3-17.4-43.9-19.9-63.9-7.6c-115.4-100.3-258.4-159.6-411.2-170.4c-5.4-22.9-26-39.9-50.5-39.9c-24.5,0-45.1,17-50.6,39.9
	c-152.7,10.6-295.8,69.7-411.2,169.8c-20-12.3-46.5-9.8-63.8,7.5c-17.3,17.3-19.9,43.8-7.6,63.8C348.6,635.3,291.8,780.3,281.2,928
	c-23,5.3-40.1,25.9-40.2,50.6c0,24.6,17.1,45.2,40.1,50.6c10.4,147.5,66.9,292.4,169.4,411c-13.5,20.2-11.3,47.7,6.5,65.5
	c17.8,17.8,45.3,20,65.5,6.6c115.2,100.1,258,159.2,410.4,170.1c4.6,23.9,25.7,42,51,42.1c25.3,0,46.4-18,51-42
	c152.5-10.7,295.5-69.7,410.8-169.7c20.2,13.5,47.7,11.3,65.5-6.5c17.8-17.8,20-45.4,6.5-65.6c102.6-118.3,159.2-262.9,169.9-410.3
	C1711.7,1025.9,1729.8,1004.9,1729.8,979.5z M1660.7,1028.5c-10.5,146.5-67.2,283.7-163.3,394.4c-19.4-9.5-43.4-6.2-59.6,9.9
	c-16.1,16.1-19.4,40.2-10,59.6c-110.9,96.1-248.3,152.8-394.9,163c-7.1-20.3-26.3-34.9-49-34.9c-22.7,0-42,14.5-49.1,34.8
	c-146.5-10.5-283.7-67.3-394.4-163.5c9.5-19.4,6.3-43.5-9.9-59.6c-16.1-16.1-40.2-19.4-59.6-9.9c-95.8-110.7-152.4-247.7-162.7-394
	c21.2-6.5,36.7-26.3,36.7-49.6c0-23.4-15.4-43.2-36.7-49.7c10.6-146.1,67.3-283,163-393.5c19.7,10.6,44.7,7.6,61.4-9
	c16.6-16.6,19.6-41.6,9.1-61.3c110.6-95.5,247.4-152,393.4-162.4c6.5,21.3,26.3,36.9,49.7,36.9c23.4,0,43.3-15.5,49.7-36.8
	c146.1,10.6,282.8,67.3,393.4,163c-10.6,19.7-7.6,44.7,9,61.3c16.6,16.6,41.6,19.6,61.3,9.1c95.7,110.8,152.2,247.9,162.5,394.3
	c-20.3,7.1-34.8,26.3-34.8,49C1625.9,1002.1,1640.4,1021.4,1660.7,1028.5z"/>
<path class="st0 splash-middle-ring" d="M1942.9,972.5c-3.2-21.6-19.3-38.2-39.3-43c-26.7-470.1-407-847.1-878.2-868.6c-6.4-25.6-31.3-42.8-58-38.8
	c-21.8,3.2-38.4,19.5-43.1,39.7C699.7,75.6,490.3,170,329.7,331.1C168.4,492.8,74.4,703.5,61.7,929.5c-25.9,6.1-43.3,31.2-39.4,58.1
	c3.2,21.6,19.2,38.1,39.1,42.9c24.3,470.2,402.2,848.2,872,873c5.6,22.7,26.1,39.6,50.5,39.6c24.5,0,44.9-16.9,50.4-39.7
	c227.1-12.5,439.1-107.2,601.2-269.8c162.5-162.9,256.7-375.5,268.3-603.2C1929.6,1024.2,1946.8,999.2,1942.9,972.5z M1616.5,1614.5
	c-157.3,157.6-362.6,249.5-582.7,261.8c-6.4-21.5-26.3-37.1-49.8-37.1c-23.5,0-43.4,15.7-49.8,37.2
	c-455.4-24.4-821.6-390.8-845.5-846.6c24.4-7.2,40.3-31.4,36.5-57.3c-3-20.5-17.7-36.5-36.3-42.2c12.5-219,103.7-423.3,260.1-580.1
	C504.6,194.1,707.5,102.5,925.3,88.8c7.4,24.1,31.5,39.8,57.2,36c20.7-3,36.8-17.9,42.3-36.8c456.8,21.3,825.4,386.5,851.7,842.3
	c-24.3,7.3-40.2,31.5-36.4,57.3c3,20.7,17.9,36.7,36.7,42.3C1865.3,1250.5,1774,1456.6,1616.5,1614.5z"/>
<g>
	<circle class="st0 splash-last-ring" cx="984.7" cy="979.5" r="222.5"/>
	<path class="st0" d="M1512.1,979.9c0-25.1-17.9-46.1-41.6-50.9c-25.5-245.5-233.6-437.6-485.7-437.6
		c-252.1,0-460.2,192-485.7,437.5c-23.9,4.7-42,25.7-42,51c0,25.3,18.1,46.3,42,51c25.6,245.4,233.7,437.3,485.7,437.3
		c252.1,0,460.1-191.9,485.7-437.3C1494.2,1026,1512.1,1005.1,1512.1,979.9z M984.7,1441c-237.7,0-434-180.8-458.6-412.1
		c20.3-7.1,34.8-26.4,34.8-49.1c0-22.7-14.6-42-34.8-49.1c24.5-231.4,220.9-412.3,458.7-412.3c237.8,0,434.1,180.8,458.6,412.2
		c-20.5,7-35.2,26.3-35.2,49.2c0,22.8,14.7,42.2,35.2,49.2C1418.7,1260.3,1222.4,1441,984.7,1441z"/>
</g>
</svg>
